<svg width="1815" height="1815" xmlns="http://www.w3.org/2000/svg" xmlns:xlink="http://www.w3.org/1999/xlink" xml:space="preserve" overflow="hidden"><defs><clipPath id="clip0"><rect x="1292" y="330" width="1815" height="1815"/></clipPath><clipPath id="clip1"><rect x="1292" y="330" width="1815" height="1815"/></clipPath></defs><g clip-path="url(#clip0)" transform="translate(-1292 -330)"><g clip-path="url(#clip1)"><path d="M2258.05 1994.98 2232.84 1996.8 2238.79 2079.02 2264.01 2077.2ZM1961.36 1979.1C1965.6 1980.39 1968.76 1982.7 1970.83 1986.01 1972.91 1989.33 1973.31 1993.05 1972.04 1997.2L1941.8 1987.94C1943.78 1983.81 1946.53 1980.99 1950.03 1979.49 1953.53 1977.99 1957.31 1977.86 1961.36 1979.1ZM2024.03 1977.51 2008.7 2058.51 2033.54 2063.21 2040.66 2025.61C2041.92 2018.93 2044.35 2014.55 2047.95 2012.48 2051.56 2010.4 2056.46 2009.95 2062.65 2011.12L2069.48 2012.41 2074.45 1986.14C2069.13 1985.13 2064.04 1985.5 2059.2 1987.24 2054.36 1988.98 2050.06 1991.8 2046.31 1995.7L2048.87 1982.2ZM2171.41 1973.93C2160.17 1973.66 2151 1976.17 2143.87 1981.47 2136.74 1986.76 2133.06 1994.23 2132.83 2003.88 2132.67 2010.38 2134.07 2015.69 2137.03 2019.8 2139.98 2023.91 2143.55 2027.05 2147.74 2029.22 2151.93 2031.39 2157.34 2033.59 2163.99 2035.82 2168.59 2037.31 2172.13 2038.63 2174.62 2039.77 2177.1 2040.91 2179.19 2042.34 2180.87 2044.06 2182.55 2045.77 2183.37 2047.91 2183.3 2050.47 2183.23 2053.52 2182.09 2055.89 2179.88 2057.56 2177.67 2059.23 2174.69 2060.02 2170.95 2059.93 2167.3 2059.84 2164.37 2058.76 2162.16 2056.68 2159.94 2054.61 2158.68 2051.65 2158.38 2047.8L2131.48 2047.15C2131.52 2053.95 2133.27 2059.8 2136.75 2064.72 2140.23 2069.63 2144.95 2073.39 2150.9 2075.99 2156.85 2078.6 2163.61 2080 2171.2 2080.18 2178.98 2080.37 2185.76 2079.1 2191.55 2076.39 2197.33 2073.67 2201.78 2069.93 2204.9 2065.18 2208.03 2060.43 2209.66 2055.1 2209.8 2049.19 2209.95 2042.99 2208.55 2037.88 2205.59 2033.87 2202.63 2029.86 2199.08 2026.77 2194.95 2024.6 2190.81 2022.43 2185.42 2020.13 2178.77 2017.7 2172.13 2015.38 2167.25 2013.24 2164.14 2011.29 2161.04 2009.34 2159.52 2006.7 2159.6 2003.35 2159.68 2000.3 2160.67 1997.98 2162.58 1996.4 2164.49 1994.82 2166.97 1994.07 2170.03 1994.14 2173.58 1994.23 2176.46 1995.26 2178.68 1997.23 2180.9 1999.21 2182.06 2001.87 2182.18 2005.22L2209.52 2005.89C2209.26 1996.13 2205.7 1988.43 2198.84 1982.8 2191.98 1977.16 2182.83 1974.21 2171.41 1973.93ZM2399.47 1973.41C2395.16 1972.73 2390.5 1972.93 2385.49 1973.99 2379.8 1975.2 2374.84 1977.71 2370.61 1981.53 2366.39 1985.35 2363.35 1989.77 2361.49 1994.79 2357.77 1990.55 2353.25 1987.63 2347.92 1986.04 2342.6 1984.45 2336.9 1984.3 2330.83 1985.59 2325.72 1986.67 2321.35 1988.63 2317.72 1991.47 2314.09 1994.3 2311.38 1997.67 2309.59 2001.57L2307.44 1991.46 2282.72 1996.7 2299.84 2077.34 2324.57 2072.1 2315.27 2028.31C2314.17 2023.11 2314.68 2018.79 2316.83 2015.37 2318.97 2011.94 2322.45 2009.72 2327.27 2008.7 2332.09 2007.67 2336.18 2008.29 2339.53 2010.55 2342.88 2012.81 2345.11 2016.54 2346.21 2021.74L2355.51 2065.53 2380.1 2060.32 2370.79 2016.53C2369.69 2011.33 2370.21 2007.01 2372.35 2003.59 2374.5 2000.16 2377.98 1997.94 2382.8 1996.92 2387.62 1995.89 2391.7 1996.51 2395.05 1998.77 2398.41 2001.03 2400.63 2004.76 2401.74 2009.96L2411.04 2053.75 2435.62 2048.54 2425.61 2001.43C2423.32 1990.63 2418.57 1982.83 2411.35 1978.02 2407.74 1975.62 2403.78 1974.08 2399.47 1973.41ZM2242.93 1960.08C2238.51 1960.4 2234.99 1961.96 2232.38 1964.77 2229.76 1967.57 2228.6 1970.94 2228.88 1974.87 2229.16 1978.7 2230.79 1981.81 2233.78 1984.22 2236.77 1986.62 2240.48 1987.66 2244.9 1987.34 2249.23 1987.02 2252.7 1985.46 2255.31 1982.66 2257.92 1979.85 2259.09 1976.53 2258.81 1972.7 2258.53 1968.77 2256.89 1965.61 2253.9 1963.21 2250.91 1960.81 2247.25 1959.76 2242.93 1960.08ZM1956.13 1957.68C1952.42 1957.44 1948.8 1957.69 1945.28 1958.41 1938.24 1959.86 1932.11 1963.14 1926.89 1968.24 1921.67 1973.33 1917.8 1979.98 1915.29 1988.17 1912.78 1996.36 1912.28 2004.04 1913.8 2011.2 1915.32 2018.36 1918.59 2024.51 1923.61 2029.65 1928.63 2034.79 1935 2038.55 1942.73 2040.91 1949.13 2042.87 1955.29 2043.47 1961.19 2042.7 1967.1 2041.93 1972.4 2040 1977.11 2036.91 1981.82 2033.82 1985.63 2029.89 1988.54 2025.11L1962.81 2017.24C1958.9 2021.6 1953.93 2022.86 1947.9 2021.02 1943.84 2019.78 1940.82 2017.44 1938.84 2014 1936.85 2010.56 1936.42 2006.33 1937.54 2001.32L1992.24 2018.06C1993.28 2015.7 1994.14 2013.39 1994.83 2011.13 1997.25 2003.21 1997.7 1995.78 1996.18 1988.82 1994.65 1981.87 1991.41 1975.88 1986.45 1970.86 1981.5 1965.84 1975.2 1962.17 1967.57 1959.83 1963.66 1958.63 1959.85 1957.92 1956.13 1957.68ZM2514.73 1930.07 2491.26 1939.46 2507.92 1981.02C2509.97 1986.14 2510.24 1990.64 2508.72 1994.54 2507.2 1998.44 2504.16 2001.3 2499.59 2003.13 2495.1 2004.93 2490.97 2004.94 2487.18 2003.16 2483.39 2001.39 2480.47 1997.95 2478.42 1992.83L2461.76 1951.27 2438.44 1960.61 2456.35 2005.32C2459.03 2011.99 2462.59 2017.31 2467.04 2021.25 2471.49 2025.2 2476.48 2027.58 2482 2028.39 2487.53 2029.2 2493.22 2028.44 2499.08 2026.09 2504.02 2024.12 2508.11 2021.28 2511.35 2017.6 2514.6 2013.91 2516.74 2009.9 2517.76 2005.56L2521.94 2015.99 2545.4 2006.59ZM1884.17 1907.05 1876.24 1925.52 1867.01 1921.55 1858.73 1940.83 1867.97 1944.79 1855.02 1974.93C1851.02 1984.26 1850.49 1991.99 1853.43 1998.12 1856.37 2004.26 1862.05 2009.14 1870.47 2012.75L1882.29 2017.82 1890.74 1998.13 1882.46 1994.58C1879.92 1993.49 1878.32 1992.22 1877.66 1990.76 1877.01 1989.29 1877.16 1987.43 1878.13 1985.17L1891.19 1954.76 1906.41 1961.28 1914.69 1942.01 1899.47 1935.48 1907.4 1917.02ZM2547.04 1883.2 2524.67 1894.96 2575.61 1991.71 2597.98 1979.94ZM1835.44 1880.32 1787.08 1972.08 1809.45 1983.85 1857.81 1892.09ZM2233.01 1301.29C2232.35 1301.2 2231.81 1301.33 2231.04 1301.65 2230.05 1302.05 2228.44 1302.7 2227.45 1303.1 2226.03 1303.68 2225.07 1303.67 2222.8 1303.04 2221.22 1302.6 2219.53 1302.21 2219.03 1302.16 2218.25 1302.09 2218.11 1304.66 2217.97 1321.53 2217.81 1340.98 2217.81 1340.98 2219.77 1340.63 2220.85 1340.43 2225.66 1339.47 2230.45 1338.5 2235.24 1337.53 2242.68 1336.17 2246.98 1335.48 2251.28 1334.79 2259.25 1333.67 2264.71 1332.99 2270.16 1332.32 2276.79 1331.5 2279.43 1331.18 2282.08 1330.85 2286.81 1330.34 2289.95 1330.03 2293.09 1329.72 2300.4 1329.18 2306.18 1328.82 2311.96 1328.46 2317.49 1328.01 2318.46 1327.81 2320.23 1327.46 2320.23 1327.46 2317.86 1326.71 2316.56 1326.3 2313.6 1325.4 2311.29 1324.7 2308.97 1324.01 2306 1323.18 2304.68 1322.85 2303.36 1322.53 2299.7 1321.58 2296.56 1320.75 2293.42 1319.92 2287.88 1318.4 2284.24 1317.39 2280.61 1316.37 2275.33 1314.89 2272.52 1314.1 2269.71 1313.31 2265.52 1312.12 2263.21 1311.46 2260.89 1310.8 2256.83 1309.6 2254.19 1308.77 2251.54 1307.95 2246.95 1306.49 2243.97 1305.51 2241 1304.54 2237.27 1303.11 2235.69 1302.33 2234.45 1301.72 2233.67 1301.39 2233.01 1301.29ZM2268.68 1255.52C2268.54 1255.52 2266.46 1258.29 2264.07 1261.68 2261.67 1265.06 2257.67 1270.27 2255.18 1273.24 2252.68 1276.21 2248.2 1281.29 2245.2 1284.52 2242.21 1287.75 2239.68 1290.63 2239.58 1290.92 2239.48 1291.21 2242.19 1292.32 2245.59 1293.38 2249 1294.43 2253.68 1295.82 2255.99 1296.45 2258.31 1297.09 2261.69 1298.03 2263.51 1298.53 2265.32 1299.04 2273.03 1301.04 2280.63 1302.99 2288.24 1304.93 2297.57 1307.36 2301.37 1308.39 2305.17 1309.42 2310.18 1310.76 2312.49 1311.37 2314.8 1311.98 2322.78 1314.22 2330.22 1316.35 2337.66 1318.47 2349.02 1321.63 2355.47 1323.35 2361.91 1325.07 2369.21 1327.04 2371.69 1327.73 2374.17 1328.41 2377.96 1329.43 2380.11 1330 2382.26 1330.56 2385.37 1331.32 2387.02 1331.69 2388.67 1332.06 2393 1332.65 2396.64 1333 2400.27 1333.35 2405.14 1333.72 2407.45 1333.81 2409.77 1333.9 2412.74 1334.03 2414.07 1334.08 2415.39 1334.14 2420.01 1333.68 2424.34 1333.06 2428.67 1332.43 2434.35 1331.33 2436.96 1330.6 2439.58 1329.87 2445.3 1327.55 2449.68 1325.43 2455.37 1322.68 2457.64 1321.28 2457.64 1320.54 2457.63 1319.96 2455.94 1317.67 2453.88 1315.45 2451.82 1313.22 2447.96 1308.67 2445.32 1305.34 2442.68 1302 2439.44 1298.48 2438.14 1297.52 2436.83 1296.56 2435.14 1295.77 2434.38 1295.77 2433.61 1295.77 2429.68 1296.57 2425.63 1297.55 2421.58 1298.52 2415.7 1300.25 2412.56 1301.38 2409.42 1302.52 2405.48 1304.14 2403.81 1304.99 2402.14 1305.84 2399.65 1306.71 2398.28 1306.93 2396.11 1307.27 2394.14 1306.71 2383.29 1302.68 2376.42 1300.13 2369.88 1297.63 2368.76 1297.14 2367.65 1296.64 2366.03 1296.03 2365.16 1295.76 2364.29 1295.49 2357.9 1292.93 2350.96 1290.06 2344.02 1287.18 2336.85 1284.22 2335.03 1283.46 2333.21 1282.71 2324.69 1279.24 2316.1 1275.77 2307.5 1272.29 2298.17 1268.5 2295.36 1267.35 2292.55 1266.21 2287.82 1264.26 2284.84 1263.02 2281.87 1261.79 2277.07 1259.6 2274.19 1258.15 2271.3 1256.7 2268.82 1255.52 2268.68 1255.52ZM2441.71 1253.71C2441.53 1253.43 2439.42 1255.27 2437.01 1257.81 2434.61 1260.35 2430.94 1264.23 2428.87 1266.43 2426.02 1269.46 2424.39 1270.66 2422.18 1271.38 2420.57 1271.91 2418.73 1272.34 2418.08 1272.34 2417.44 1272.34 2416 1271.96 2414.89 1271.49 2413.77 1271.02 2409.92 1267.78 2406.32 1264.28 2402.73 1260.78 2399.41 1257.92 2398.94 1257.92 2398.48 1257.92 2396.01 1258.71 2393.46 1259.67 2390.91 1260.63 2387.06 1261.96 2384.92 1262.62 2382.77 1263.29 2377.72 1264.68 2373.7 1265.71 2369.68 1266.74 2364.95 1267.83 2363.19 1268.13 2361.42 1268.44 2356.73 1269.24 2352.76 1269.92 2348.79 1270.6 2344.9 1271.3 2344.11 1271.48 2342.73 1271.79 2342.72 1271.84 2343.81 1272.57 2344.43 1273 2350.63 1275.67 2357.57 1278.51 2364.51 1281.35 2373.03 1284.76 2376.5 1286.08 2379.97 1287.4 2385.52 1289.46 2388.82 1290.65 2392.13 1291.84 2395.37 1293.06 2396.03 1293.35 2396.7 1293.64 2397.54 1293.9 2397.91 1293.93 2398.27 1293.95 2400.57 1293.13 2403.01 1292.11 2405.46 1291.08 2409.73 1289.44 2412.52 1288.46 2415.31 1287.48 2420.43 1286 2423.9 1285.16 2428.74 1284 2431.38 1283.69 2435.23 1283.85L2440.24 1284.05 2440.49 1273.54C2440.63 1267.76 2441.03 1261.05 2441.38 1258.62 2441.73 1256.2 2441.88 1253.99 2441.71 1253.71ZM1924.46 1232.71C1923.67 1233.12 1919.63 1235.68 1915.5 1238.4 1911.36 1241.11 1903.81 1245.84 1898.72 1248.9 1893.62 1251.97 1883.48 1257.5 1876.18 1261.2 1868.88 1264.89 1860.75 1268.81 1858.1 1269.89 1855.46 1270.98 1852.48 1272.23 1851.49 1272.67 1850.5 1273.12 1848.2 1274.08 1846.38 1274.79 1844.57 1275.51 1840.68 1276.88 1837.74 1277.82 1834.81 1278.77 1830.75 1279.8 1828.73 1280.1 1826.7 1280.41 1822.75 1280.51 1819.94 1280.32 1817.13 1280.13 1813.48 1279.96 1811.82 1279.94 1810.17 1279.92 1806.52 1280.24 1803.71 1280.67 1800.9 1281.09 1796.71 1281.69 1794.39 1281.99 1792.08 1282.29 1784.6 1282.94 1777.76 1283.43 1770.93 1283.92 1762.59 1284.89 1759.23 1285.58 1755.86 1286.28 1751.31 1287.52 1749.11 1288.35 1746.91 1289.17 1743.62 1290.55 1741.8 1291.42 1739.98 1292.28 1737.01 1293.99 1735.19 1295.21 1733.37 1296.43 1730.49 1298.77 1728.79 1300.42 1727.08 1302.06 1725.16 1304.45 1724.51 1305.74 1723.87 1307.03 1722.92 1309.43 1722.4 1311.09 1721.89 1312.74 1721.15 1315.91 1720.75 1318.14 1720.36 1320.36 1720.19 1322.59 1720.38 1323.09 1720.66 1323.83 1722.02 1324 1727.56 1324 1731.32 1324 1742.35 1323.44 1752.07 1322.76 1767.15 1321.7 1773.59 1321.56 1795.9 1321.8 1810.28 1321.95 1827.99 1322.36 1835.27 1322.7 1842.54 1323.05 1852.68 1323.63 1857.8 1323.99 1862.93 1324.36 1871.85 1325.48 1877.64 1326.49 1883.42 1327.49 1890.86 1328.8 1894.17 1329.39 1897.47 1329.97 1901.39 1330.79 1902.88 1331.19 1904.37 1331.6 1908.43 1333 1911.9 1334.3 1915.37 1335.61 1919.29 1337.19 1920.61 1337.82 1921.93 1338.44 1923.29 1338.88 1923.62 1338.79 1923.95 1338.69 1924.39 1335.08 1924.6 1330.56 1924.82 1326.13 1925.19 1302.13 1925.44 1277.23 1925.9 1231.96 1925.9 1231.96 1924.46 1232.71ZM1792.1 1225.39C1791.76 1225.17 1790.93 1225.35 1790.24 1225.79 1789.55 1226.23 1786.55 1227.52 1783.57 1228.65 1780.6 1229.79 1776.14 1231.41 1773.66 1232.25 1771.18 1233.1 1767.12 1234.35 1764.64 1235.04 1762.16 1235.73 1758.92 1236.54 1757.43 1236.84 1755.94 1237.14 1750.13 1238.39 1744.51 1239.6 1738.89 1240.82 1732.4 1242.21 1730.08 1242.69 1727.77 1243.16 1723.04 1244.23 1719.56 1245.05 1716.09 1245.88 1711.5 1247.12 1709.35 1247.81 1707.2 1248.5 1703.61 1250.01 1701.37 1251.17 1699.14 1252.33 1696.21 1254.34 1694.88 1255.63 1693.54 1256.93 1691.92 1259.21 1691.28 1260.71 1690.64 1262.21 1690.11 1264.39 1690.11 1265.57 1690.11 1266.74 1690.65 1269.49 1691.3 1271.68 1691.95 1273.87 1693.45 1277.28 1694.64 1279.25 1695.83 1281.23 1698.07 1284.16 1699.62 1285.75 1701.17 1287.35 1704.73 1290.39 1707.54 1292.5 1710.35 1294.61 1713.01 1296.35 1713.45 1296.36 1713.89 1296.36 1716.27 1294.35 1718.74 1291.88 1721.21 1289.41 1725.45 1285.94 1728.16 1284.16 1730.87 1282.39 1734.85 1280.11 1736.99 1279.11 1739.14 1278.11 1742.43 1276.73 1744.3 1276.04 1746.17 1275.36 1749.83 1274.28 1752.42 1273.65 1755.01 1273.01 1759.7 1272.18 1762.84 1271.81 1765.98 1271.43 1773.82 1270.86 1780.27 1270.55 1786.72 1270.23 1794.79 1269.66 1798.2 1269.27 1802.55 1268.77 1804.52 1268.29 1804.75 1267.69 1804.93 1267.21 1804.24 1264.89 1803.2 1262.52 1802.17 1260.16 1800.75 1256.6 1800.06 1254.62 1799.37 1252.64 1798.14 1248.72 1797.34 1245.91 1796.53 1243.1 1795.31 1238.1 1794.62 1234.8 1793.93 1231.49 1793.21 1228.11 1793.04 1227.29 1792.86 1226.46 1792.44 1225.6 1792.1 1225.39ZM2368.13 1213.11C2367.19 1213.22 2365.56 1213.78 2362.29 1214.91 2358.7 1216.16 2354.01 1217.71 2351.86 1218.37 2349.71 1219.03 2345.65 1220.24 2342.84 1221.05 2340.03 1221.86 2331.92 1224.02 2324.81 1225.84 2317.71 1227.67 2309.46 1229.8 2306.48 1230.58 2303.51 1231.36 2298.52 1232.7 2295.41 1233.57 2292.29 1234.45 2289.57 1235.26 2289.35 1235.39 2289.14 1235.52 2286.82 1236.19 2284.2 1236.88 2281.58 1237.57 2278.84 1238.43 2278.11 1238.8 2277.39 1239.17 2276.37 1240.52 2275.86 1241.8 2275.35 1243.08 2274.93 1244.41 2274.93 1244.75 2274.93 1245.09 2277.16 1246.38 2279.88 1247.63 2282.61 1248.87 2285.92 1250.33 2287.25 1250.87 2288.57 1251.41 2291.41 1252.53 2293.56 1253.35 2295.71 1254.16 2301.39 1256.36 2306.18 1258.23 2310.97 1260.1 2315.98 1261.86 2317.3 1262.15 2318.62 1262.44 2322.14 1262.55 2325.11 1262.4 2328.09 1262.24 2333.77 1261.43 2337.73 1260.59 2341.7 1259.75 2346.16 1258.83 2347.65 1258.56 2349.14 1258.28 2353.33 1257.47 2356.97 1256.77 2360.6 1256.06 2365.07 1255.11 2366.89 1254.66 2368.7 1254.21 2372.76 1253.17 2375.9 1252.34 2379.04 1251.52 2383.5 1250.27 2385.82 1249.56 2388.13 1248.86 2390.4 1248.04 2390.86 1247.75 2391.51 1247.35 2390.24 1245.13 2385.1 1237.71 2381.48 1232.47 2376.8 1225.32 2374.71 1221.81 2372.63 1218.3 2370.45 1214.81 2369.87 1214.05 2369.34 1213.35 2369.08 1213 2368.13 1213.11ZM1940.72 1056.08C1940.18 1056.08 1938.41 1057.09 1936.79 1058.33 1935.16 1059.56 1931.85 1062.47 1929.43 1064.79 1927 1067.1 1923.07 1071.57 1920.69 1074.71 1918.31 1077.84 1914.44 1083.52 1912.09 1087.32 1909.74 1091.12 1906.54 1096.39 1904.97 1099.03 1903.41 1101.68 1899.09 1109.11 1895.36 1115.55 1891.64 1122 1886.58 1130.65 1884.1 1134.78 1881.63 1138.91 1877.38 1145.94 1874.66 1150.4 1871.94 1154.85 1867.54 1161.75 1864.87 1165.71 1862.21 1169.68 1859.2 1174 1858.19 1175.32 1857.17 1176.65 1854.4 1180.04 1852.03 1182.86 1849.66 1185.67 1845.46 1190.17 1842.7 1192.85 1839.93 1195.53 1836.72 1198.5 1835.57 1199.45 1834.41 1200.41 1831.97 1202.3 1830.16 1203.66 1828.34 1205.01 1824.82 1207.42 1822.34 1209.01 1819.86 1210.59 1814.72 1213.32 1810.92 1215.08 1807.12 1216.83 1803.92 1218.68 1803.82 1219.18 1803.71 1219.68 1804.33 1222.99 1805.18 1226.54 1806.05 1230.09 1807.04 1234.21 1807.4 1235.7 1807.75 1237.18 1809.26 1242.05 1810.75 1246.51 1812.25 1250.97 1814.65 1256.92 1816.1 1259.73 1817.54 1262.53 1819.38 1265.64 1820.18 1266.63 1821.51 1268.29 1821.91 1268.42 1825.03 1268.32 1826.9 1268.25 1829.43 1267.89 1830.65 1267.51 1831.86 1267.13 1834.62 1266.15 1836.77 1265.34 1838.92 1264.53 1841.22 1263.62 1841.88 1263.32 1842.54 1263.02 1845.88 1261.54 1849.3 1260.02 1852.71 1258.51 1858.66 1255.67 1862.52 1253.71 1866.37 1251.75 1872.09 1248.77 1875.23 1247.08 1878.38 1245.4 1882.43 1243.18 1884.25 1242.16 1886.07 1241.14 1888.1 1240.01 1888.76 1239.65 1889.42 1239.29 1892.26 1237.57 1895.07 1235.83 1897.88 1234.08 1904.33 1229.95 1909.4 1226.66 1914.48 1223.37 1920.16 1219.51 1922.03 1218.09 1925.42 1215.51 1925.42 1215.51 1925.72 1193.32 1925.99 1173.53 1926.14 1170.88 1927.1 1168.95 1927.7 1167.76 1928.86 1166.47 1929.69 1166.1 1930.51 1165.72 1931.87 1165.41 1932.71 1165.41 1933.57 1165.41 1934.94 1166.13 1935.88 1167.07 1937.52 1168.72 1937.52 1168.72 1938.38 1203.86 1938.86 1223.19 1939.17 1251.3 1939.08 1266.33 1938.99 1281.36 1938.66 1300.02 1938.33 1307.78 1938 1315.55 1937.56 1331.91 1937.34 1344.15 1937.13 1356.4 1937.13 1367.12 1937.35 1367.99 1937.74 1369.57 1937.74 1369.57 1941.5 1368.08 1943.56 1367.25 1946.07 1366.21 1947.06 1365.76L1947.06 1365.76C1948.05 1365.31 1950.75 1364.23 1953.07 1363.35 1955.38 1362.48 1959.58 1360.99 1962.39 1360.04 1965.2 1359.1 1970.33 1357.51 1973.81 1356.52 1977.28 1355.53 1983.09 1354.04 1986.73 1353.21 1990.36 1352.38 1996.04 1351.26 1999.35 1350.72 2002.65 1350.17 2008.47 1349.34 2012.27 1348.85 2016.75 1348.27 2027.55 1347.84 2042.99 1347.62 2061.83 1347.35 2069.6 1347.48 2080.25 1348.26 2087.65 1348.8 2095.6 1349.51 2097.92 1349.83 2100.23 1350.16 2104.75 1350.84 2107.96 1351.35 2111.16 1351.86 2117.79 1353.24 2122.68 1354.4 2127.57 1355.57 2134.42 1357.2 2137.89 1358.02 2141.36 1358.84 2146.19 1359.95 2148.61 1360.47 2152.31 1361.28 2153.11 1361.3 2153.53 1360.62 2153.81 1360.17 2154.22 1358.44 2154.45 1356.77 2154.67 1355.1 2155.24 1351.98 2155.7 1349.83 2156.16 1347.68 2156.79 1344.71 2157.1 1343.22 2157.4 1341.74 2158.05 1338.9 2158.54 1336.92 2159.02 1334.93 2160.77 1328.45 2162.42 1322.5 2164.06 1316.55 2166.01 1309.12 2166.75 1305.98 2167.48 1302.84 2169.14 1296.14 2170.43 1291.09 2171.71 1286.04 2173.6 1279.28 2174.62 1276.07 2175.64 1272.86 2177.27 1268.41 2178.25 1266.17 2179.22 1263.93 2179.85 1261.84 2179.65 1261.51 2179.45 1261.19 2177.53 1258.59 2175.38 1255.74 2173.23 1252.89 2169.37 1247.42 2166.8 1243.58 2164.24 1239.74 2161.11 1234.84 2159.85 1232.69 2158.59 1230.54 2156.38 1226.59 2154.94 1223.91 2153.12 1220.53 2152.31 1218.32 2152.31 1216.69 2152.31 1215.4 2152.72 1213.76 2153.22 1213.05 2153.71 1212.34 2155.06 1211.45 2156.2 1211.07 2157.9 1210.51 2158.65 1210.57 2160.33 1211.36 2161.87 1212.09 2162.93 1213.38 2164.58 1216.53 2165.79 1218.84 2167.88 1222.54 2169.24 1224.76 2170.59 1226.97 2173.73 1231.76 2176.22 1235.4 2178.71 1239.03 2182.7 1244.44 2185.09 1247.41 2187.48 1250.38 2197.28 1260.66 2206.86 1270.24L2224.28 1287.66 2235.03 1276.36C2240.94 1270.15 2246.06 1264.74 2246.42 1264.35 2246.77 1263.95 2249.74 1260.11 2253.03 1255.8 2256.31 1251.5 2260.14 1246.08 2261.54 1243.77 2262.94 1241.46 2264.25 1238.72 2264.46 1237.69 2264.81 1235.95 2264.42 1235.36 2259.51 1230.15 2256.59 1227.04 2249.45 1218.71 2243.65 1211.63 2237.86 1204.54 2231.49 1196.59 2229.49 1193.95 2227.49 1191.3 2223.16 1185.22 2219.87 1180.43 2216.57 1175.64 2212.28 1169.29 2210.33 1166.31 2208.38 1163.34 2204.64 1157.39 2202 1153.1 2199.37 1148.8 2196.21 1143.8 2194.99 1141.99 2193.76 1140.17 2190.67 1135.17 2188.11 1130.87 2185.56 1126.58 2181.8 1120.57 2179.76 1117.52 2177.72 1114.46 2175.78 1111.96 2175.44 1111.96 2175.11 1111.95 2170.78 1115.5 2165.83 1119.84 2160.87 1124.19 2153.44 1131.02 2149.31 1135.02 2145.18 1139.02 2139.77 1144.03 2137.29 1146.14 2134.81 1148.26 2132.64 1150.16 2132.48 1150.37 2132.31 1150.58 2130.56 1152.05 2128.59 1153.64 2125.24 1156.34 2124.82 1156.51 2122.3 1156.22 2120.05 1155.97 2119.2 1155.47 2117.18 1153.23 2115.84 1151.76 2114.01 1149.43 2113.1 1148.07 2112.19 1146.7 2111.2 1145.59 2110.9 1145.59 2110.59 1145.59 2107.03 1148.36 2102.98 1151.75 2098.94 1155.13 2092.08 1160.83 2087.76 1164.4 2083.43 1167.97 2076.91 1172.88 2073.28 1175.31 2069.64 1177.75 2063.69 1181.21 2060.05 1183.02 2056.42 1184.83 2051.28 1187.14 2048.63 1188.14 2045.99 1189.15 2041.74 1190.39 2039.19 1190.91 2036.65 1191.42 2032.18 1191.84 2029.28 1191.84 2026.37 1191.83 2022.3 1191.43 2020.22 1190.94 2018.15 1190.45 2015.05 1189.34 2013.34 1188.47 2011.62 1187.6 2008.85 1185.87 2007.19 1184.63 2005.52 1183.38 2002.91 1181.04 2001.38 1179.44 1999.85 1177.84 1997 1174.36 1995.04 1171.72 1993.07 1169.08 1990.37 1165.02 1989.02 1162.71 1987.68 1160.4 1985.08 1155.67 1983.25 1152.2 1981.42 1148.73 1978.43 1142.92 1976.61 1139.28 1974.79 1135.65 1971.51 1128.93 1969.34 1124.36 1967.17 1119.79 1965.39 1115.96 1965.39 1115.85 1965.39 1115.74 1963.9 1112.54 1962.08 1108.73 1960.27 1104.92 1958.78 1101.63 1958.78 1101.43 1958.78 1101.23 1958.1 1099.58 1957.28 1097.78 1956.45 1095.97 1955.77 1094.3 1955.78 1094.06 1955.78 1093.82 1955.11 1092.01 1954.3 1090.03 1953.49 1088.04 1951.3 1082.23 1949.43 1077.11 1947.56 1071.99 1945.42 1066.18 1944.66 1064.19 1943.9 1062.21 1942.93 1059.58 1942.5 1058.34 1942.02 1056.97 1941.32 1056.08 1940.72 1056.08ZM1979.36 1042.94C1978.68 1042.59 1976.41 1042.6 1973.19 1042.97 1970.39 1043.3 1965.49 1044.05 1962.31 1044.65 1959.13 1045.25 1955.74 1046.11 1954.8 1046.56 1953.44 1047.21 1953.03 1047.84 1952.89 1049.56 1952.76 1051.12 1953.75 1054.34 1956.39 1060.97 1958.41 1066.05 1960.42 1071.01 1960.86 1072 1961.29 1073 1961.85 1074.48 1962.09 1075.31 1962.33 1076.13 1963.17 1078.24 1963.96 1079.98 1964.75 1081.72 1965.39 1083.3 1965.39 1083.48 1965.39 1083.67 1966.23 1085.75 1967.26 1088.12 1968.29 1090.49 1969.48 1093.24 1969.92 1094.23 1970.35 1095.22 1971.84 1098.46 1973.23 1101.44 1974.61 1104.41 1977.36 1110.36 1979.33 1114.65 1981.29 1118.95 1985.29 1127.19 1988.2 1132.98 1991.11 1138.76 1994.88 1146.03 1996.57 1149.13 1998.26 1152.24 1999.65 1154.89 1999.65 1155.02 1999.65 1155.16 2001.12 1157.5 2002.92 1160.23 2004.72 1162.96 2007.93 1167.07 2010.06 1169.36 2012.19 1171.65 2015.46 1174.44 2017.32 1175.55 2019.18 1176.67 2021.57 1177.81 2022.65 1178.08 2023.71 1178.36 2027.43 1178.49 2030.9 1178.38 2035.85 1178.22 2038.25 1177.82 2042.02 1176.52 2044.67 1175.61 2050.02 1173.28 2053.92 1171.35 2057.82 1169.41 2062.69 1166.69 2064.74 1165.31 2066.79 1163.93 2070.63 1161.17 2073.28 1159.18 2075.92 1157.19 2081.6 1152.57 2085.9 1148.91 2090.19 1145.24 2095.94 1140.41 2098.67 1138.16 2101.4 1135.91 2103.63 1133.89 2103.63 1133.66 2103.63 1133.43 2102.75 1131.9 2101.68 1130.25 2100.6 1128.61 2098.34 1124.96 2096.64 1122.16 2094.95 1119.35 2091.94 1114.08 2089.96 1110.45 2087.97 1106.81 2085.19 1101.41 2083.78 1098.44 2082.37 1095.46 2080.6 1091.28 2079.85 1089.14 2079.11 1087 2078.26 1085.18 2077.97 1085.08 2077.68 1084.99 2072.86 1089.13 2067.25 1094.29 2061.64 1099.45 2054.88 1105.5 2052.24 1107.73 2049.6 1109.96 2046.62 1112.2 2045.63 1112.69 2044.64 1113.19 2042.83 1113.77 2041.6 1113.99 2040.19 1114.25 2038.64 1114.09 2037.35 1113.55 2036.23 1113.08 2032.62 1110.44 2029.31 1107.67 2026.01 1104.9 2019.95 1099.11 2015.84 1094.81 2011.73 1090.5 2006.45 1084.42 2004.12 1081.29 2001.78 1078.17 1998.66 1073.99 1997.18 1072 1995.7 1070.02 1992.71 1065.56 1990.54 1062.09 1988.37 1058.62 1985.2 1053.31 1983.5 1050.3 1981.8 1047.28 1980.41 1044.52 1980.41 1044.16 1980.41 1043.8 1979.94 1043.26 1979.36 1042.94ZM2502.89 1035.7C2497.42 1035.61 2496.86 1035.92 2494.61 1037.17 2492.95 1038.09 2489.58 1040.22 2487.1 1041.9 2484.63 1043.59 2479.55 1047.92 2475.82 1051.52 2471.9 1055.31 2466.7 1061.19 2463.5 1065.47 2460.46 1069.53 2456.31 1075.51 2454.29 1078.74 2452.27 1081.97 2449.44 1086.78 2448 1089.42 2446.57 1092.07 2443.62 1097.49 2441.44 1101.48 2439.26 1105.47 2435.87 1112.22 2433.89 1116.5 2431.91 1120.77 2426.16 1132.46 2421.11 1142.48 2416.06 1152.5 2410.49 1163.05 2408.72 1165.91 2406.96 1168.78 2403.01 1175.04 2399.94 1179.83 2396.87 1184.62 2392.68 1190.7 2390.62 1193.35 2388.56 1195.99 2385.22 1199.77 2383.2 1201.76 2381.04 1203.88 2379.53 1205.88 2379.52 1206.62 2379.51 1207.32 2380.43 1209.09 2381.55 1210.56 2382.67 1212.03 2385.14 1215.65 2387.03 1218.61 2388.93 1221.56 2392.65 1226.96 2395.31 1230.59 2397.97 1234.22 2401.66 1239.21 2403.5 1241.68 2405.35 1244.14 2409.25 1248.67 2412.19 1251.74 2415.12 1254.81 2417.96 1257.32 2418.5 1257.32 2419.03 1257.31 2421.93 1254.68 2424.94 1251.46 2427.94 1248.24 2431.88 1243.85 2433.68 1241.7 2435.48 1239.56 2438.57 1235.59 2440.54 1232.9 2442.51 1230.2 2446.67 1224.48 2449.8 1220.18 2452.92 1215.87 2458.71 1207.27 2462.67 1201.05 2466.62 1194.83 2474.45 1181.9 2480.06 1172.32 2485.67 1162.74 2492.8 1149.9 2495.91 1143.79 2500.02 1135.69 2502.37 1130.16 2504.54 1123.39 2506.65 1116.84 2508.01 1113.62 2509.15 1112.43 2510.4 1111.12 2511.31 1110.75 2513.25 1110.75 2515.05 1110.75 2516.08 1111.12 2516.99 1112.1 2517.69 1112.84 2518.43 1114.15 2518.64 1115.01 2518.9 1116.02 2518.16 1119.56 2516.55 1125.14 2515.19 1129.85 2513.27 1135.73 2512.29 1138.2 2511.31 1140.67 2507.85 1148 2504.6 1154.5 2501.35 1161 2497.21 1168.88 2495.4 1172.02 2493.59 1175.16 2489.89 1181.56 2487.19 1186.24 2484.49 1190.92 2478.87 1200.11 2474.71 1206.66 2470.54 1213.21 2465.12 1221.34 2462.66 1224.72 2460.05 1228.3 2457.83 1232.07 2457.32 1233.76 2456.85 1235.36 2455.91 1241.38 2455.22 1247.14 2454.54 1252.91 2453.71 1261.27 2453.37 1265.73 2453.04 1270.19 2452.9 1278.48 2453.06 1284.16 2453.28 1291.85 2453.59 1294.93 2454.29 1296.28 2454.81 1297.27 2456.69 1299.81 2458.48 1301.93 2460.27 1304.04 2463.59 1307 2465.85 1308.52 2468.11 1310.03 2471.04 1311.84 2472.36 1312.53 2473.68 1313.22 2475.7 1313.79 2476.86 1313.78 2478.03 1313.78 2480.6 1313.39 2482.59 1312.93 2484.57 1312.47 2488.9 1311.79 2492.2 1311.42 2495.51 1311.04 2500.24 1310.48 2502.72 1310.16 2505.2 1309.84 2509.82 1309.32 2512.99 1308.99 2516.15 1308.67 2524.67 1308.1 2531.92 1307.73 2539.16 1307.36 2548.61 1307.24 2552.91 1307.45 2557.2 1307.66 2563.81 1308.25 2567.59 1308.75 2571.36 1309.26 2577.45 1310.33 2581.11 1311.12 2584.77 1311.91 2590.47 1313.22 2593.78 1314.03 2597.08 1314.83 2601.41 1315.92 2603.39 1316.45 2605.38 1316.98 2609.44 1318.11 2612.41 1318.97 2615.39 1319.82 2624.44 1322.65 2632.55 1325.24 2640.64 1327.84 2650.39 1330.89 2654.2 1332.04 2658.01 1333.18 2663.01 1334.7 2665.32 1335.43 2667.62 1336.16 2671.71 1337.52 2674.4 1338.45 2677.09 1339.38 2684.46 1342.35 2690.79 1345.06 2697.12 1347.77 2702.44 1350.23 2702.62 1350.51 2702.79 1350.8 2703.33 1351.03 2703.8 1351.03 2704.28 1351.03 2704.67 1350.95 2704.67 1350.84 2704.67 1350.73 2705.19 1348.22 2705.82 1345.26 2706.46 1342.29 2707.26 1337.17 2707.61 1333.89 2711.44 1311.04 2711.6 1287.47 2712.48 1264.23 2712.76 1256.63 2712.99 1241.9 2713 1231.49 2713.02 1221.08 2712.78 1208.24 2712.49 1202.96 2712.19 1197.67 2711.53 1189.43 2711.02 1184.64 2710.51 1179.85 2709.4 1172.28 2708.56 1167.82 2707.71 1163.36 2706.32 1156.73 2705.47 1153.1 2704.62 1149.47 2703.12 1143.38 2702.15 1139.58 2701.17 1135.78 2699.68 1130.38 2698.84 1127.57 2698 1124.76 2696.54 1120.17 2695.61 1117.36 2694.67 1114.55 2691.76 1106.57 2689.14 1099.63 2686.52 1092.7 2683.36 1084.45 2682.12 1081.31 2680.89 1078.18 2678.53 1072.81 2676.9 1069.38 2675.26 1065.96 2672.88 1061.46 2671.62 1059.4 2670.35 1057.33 2667.22 1052.7 2664.65 1049.11 2662.08 1045.51 2659.96 1042.53 2659.94 1042.48 2659.91 1042.44 2652.05 1041.81 2642.46 1041.1 2632.88 1040.38 2618.13 1039.54 2609.7 1039.23 2601.27 1038.92 2580.58 1038.39 2563.72 1038.04 2546.87 1037.69 2530.77 1037.16 2527.96 1036.86 2525.15 1036.56 2517.18 1036.14 2510.23 1035.91 2507.08 1035.81 2504.71 1035.73 2502.89 1035.7ZM2115.8 1025.45C2114.8 1025.45 2112.25 1025.98 2110.15 1026.62 2108.05 1027.27 2100.65 1029.41 2093.71 1031.38 2086.77 1033.34 2079.2 1035.39 2076.88 1035.93 2074.57 1036.47 2071.59 1037.16 2070.27 1037.46 2068.95 1037.76 2065.09 1038.58 2061.69 1039.27 2058.29 1039.96 2052.47 1040.94 2048.77 1041.44 2044.17 1042.06 2034.32 1042.46 2017.83 1042.69 1999.29 1042.94 1993.64 1043.2 1993.64 1043.76 1993.64 1044.17 1996.41 1048.67 1999.8 1053.76 2003.19 1058.86 2008.39 1066.13 2011.37 1069.92 2014.34 1073.71 2020.4 1080.59 2024.83 1085.2 2029.26 1089.82 2034.76 1095.17 2037.06 1097.1 2039.36 1099.03 2041.65 1100.52 2042.13 1100.42 2042.62 1100.32 2047.2 1096.32 2052.3 1091.53 2057.4 1086.74 2072.74 1071.46 2086.39 1057.59 2100.03 1043.71 2112.64 1030.8 2114.41 1028.9 2117.63 1025.45 2117.63 1025.45 2115.8 1025.45ZM2542.97 971.089C2542.38 971.277 2541.51 972.029 2541.04 972.759 2540.57 973.49 2539.48 976.116 2538.61 978.593 2537.75 981.07 2536.36 986.505 2535.52 990.665 2534.69 994.828 2533.68 1002.07 2533.27 1006.76 2532.71 1013.38 2532.7 1016.07 2533.26 1018.75 2533.65 1020.66 2533.97 1022.78 2533.97 1023.47 2533.97 1024.68 2534.36 1024.73 2545.67 1025.15 2560.47 1025.33 2575.92 1025.19 2587.89 1025.46 2603.03 1025.8 2621.64 1026.51 2629.24 1027.03 2636.84 1027.56 2645.23 1028.19 2647.87 1028.43 2650.99 1028.56 2653.1 1028.84 2655.8 1027.61 2656.31 1027.29 2657.45 1024.5 2658.45 1019.35 2659.38 1014.6 2660.15 1008.62 2660.17 1006.04 2660.09 1003.14 2660.23 999.921 2657.84 997.957 2657.32 997.537 2654.45 996.02 2651.48 994.581 2648.5 993.145 2645.39 991.761 2644.56 991.509 2643.74 991.257 2641.98 990.566 2640.66 989.972 2639.34 989.379 2635.55 987.914 2632.24 986.717 2628.94 985.517 2625.29 984.177 2624.13 983.733 2622.97 983.291 2619.18 982.233 2615.7 981.379 2612.22 980.528 2607.63 979.565 2605.49 979.242 2603.34 978.919 2599.08 978.233 2596.02 977.72 2592.96 977.204 2585.93 976.244 2580.39 975.582 2574.86 974.923 2565.7 973.852 2560.04 973.201 2554.38 972.552 2548.46 971.735 2546.9 971.384 2545.33 971.034 2543.57 970.901 2542.97 971.089ZM1979.75 967.179C1978.56 967.179 1977.65 967.747 1976.61 969.132 1975.8 970.205 1974.46 972.446 1973.63 974.109 1972.79 975.772 1971.31 979.962 1970.33 983.42 1969.34 986.877 1968.05 992.274 1967.45 995.413 1966.73 999.176 1966.37 1003.78 1966.39 1008.93 1966.41 1014.42 1966.81 1018.69 1967.73 1023.32 1968.44 1026.94 1969.36 1030.12 1969.77 1030.37 1970.17 1030.63 1970.9 1030.66 1971.4 1030.44 1971.9 1030.22 1988.12 1029.83 2007.46 1029.58 2026.8 1029.33 2044.38 1028.87 2046.53 1028.57 2048.68 1028.26 2053.41 1027.43 2057.05 1026.71 2060.68 1025.99 2066.23 1024.84 2069.37 1024.14 2072.51 1023.44 2081.17 1021.17 2088.6 1019.09 2096.04 1017.02 2105.51 1014.34 2109.64 1013.14 2113.77 1011.95 2119.45 1010.43 2122.26 1009.77 2125.07 1009.11 2130.75 1007.81 2134.88 1006.87 2139.02 1005.94 2144.43 1004.8 2146.9 1004.36 2149.77 1003.85 2156.11 1003.56 2164.33 1003.57 2173.99 1003.58 2178.5 1003.84 2182.18 1004.59 2184.89 1005.14 2189.49 1006.17 2192.4 1006.88 2195.31 1007.59 2201.61 1009.47 2206.41 1011.06 2211.2 1012.65 2217.29 1014.51 2219.93 1015.18 2222.57 1015.86 2227.17 1016.85 2230.15 1017.38 2233.12 1017.92 2238.53 1018.73 2242.17 1019.18 2245.81 1019.63 2251.08 1020.01 2253.89 1020.02 2256.7 1020.03 2261.43 1019.74 2264.41 1019.39 2267.38 1019.03 2272.29 1018.08 2275.32 1017.29 2278.34 1016.49 2282.22 1015.19 2283.93 1014.39 2285.65 1013.6 2288.31 1012.08 2289.85 1011.02 2291.4 1009.96 2293.63 1007.84 2294.82 1006.31 2296.01 1004.78 2297.34 1002.86 2297.77 1002.04 2298.51 1000.63 2298.35 1000.38 2294.4 996.686 2292.12 994.554 2286.95 990.357 2282.92 987.353 2278.89 984.353 2271.85 979.847 2267.29 977.344 2262.73 974.84 2257.78 972.342 2256.29 971.797 2254.81 971.251 2252.12 970.526 2250.32 970.187 2248.36 969.818 2235.39 969.567 2218.14 969.564 2202.24 969.562 2185.86 969.841 2181.74 970.185 2177.62 970.529 2169.92 971.342 2164.64 971.992 2159.35 972.641 2152.18 973.453 2148.71 973.798 2145.24 974.141 2139.56 974.691 2136.09 975.02 2132.61 975.35 2125.18 976.022 2119.56 976.513 2113.94 977.004 2103.85 977.821 2097.13 978.324 2087.54 979.044 2082.26 979.121 2072.49 978.679 2065.59 978.366 2057.65 978.336 2054.65 978.613 2051.67 978.884 2045.99 979.126 2042.02 979.148 2038.06 979.17 2029.54 978.66 2023.09 978.013 2016.64 977.369 2009.88 976.557 2008.06 976.214 2006.25 975.868 2002.17 974.781 1999.01 973.793 1995.85 972.806 1990.6 970.913 1987.34 969.588 1984.08 968.263 1980.67 967.179 1979.75 967.179ZM2468.46 953.188C2463.67 953.17 2456.91 953.5 2453.43 953.919 2449.96 954.339 2443.47 955.35 2439.01 956.167 2434.55 956.984 2428.19 958.32 2424.89 959.136 2421.58 959.952 2415.9 961.45 2412.26 962.464 2408.63 963.478 2401.86 965.523 2397.24 967.009 2392.61 968.496 2387.2 970.215 2385.22 970.832 2383.23 971.448 2378.23 972.754 2374.1 973.734 2369.97 974.714 2364.83 975.809 2362.68 976.17 2360.53 976.527 2357.55 977.063 2356.07 977.357 2354.58 977.65 2351.47 978.181 2349.15 978.534 2346.84 978.886 2340.55 979.466 2335.18 979.82 2328.25 980.273 2322.21 980.273 2314.44 979.82 2308.41 979.466 2301.64 978.886 2299.4 978.529 2297.16 978.171 2294.91 978.038 2294.4 978.235 2293.66 978.514 2293.89 978.943 2295.46 980.229 2296.57 981.13 2300.66 984.691 2304.57 988.143 2308.47 991.593 2312.05 995.169 2312.53 996.087 2313 997.005 2313.39 998.376 2313.38 999.137 2313.37 999.897 2312.84 1001.69 2312.19 1003.11 2311.54 1004.54 2309.56 1007.92 2307.78 1010.62 2306.01 1013.33 2303.1 1016.98 2301.31 1018.74 2298.98 1021.04 2296.21 1022.84 2291.45 1025.17 2287.82 1026.95 2282.81 1028.96 2280.33 1029.64 2277.85 1030.32 2273.39 1031.28 2270.42 1031.76 2267.12 1032.31 2260.9 1032.65 2254.47 1032.65 2248.46 1032.66 2240.92 1032.26 2236.94 1031.74 2233.1 1031.24 2226.89 1030.18 2223.14 1029.38 2219.39 1028.58 2213.21 1026.96 2209.41 1025.77 2205.61 1024.58 2200.74 1023.04 2198.59 1022.36 2196.44 1021.68 2192.12 1020.46 2188.98 1019.65 2185.84 1018.84 2180.83 1017.79 2177.86 1017.32 2174.88 1016.85 2168.77 1016.46 2164.28 1016.45 2159.79 1016.44 2153.84 1016.74 2151.06 1017.1 2148.28 1017.47 2144.54 1018.14 2142.76 1018.59 2140.97 1019.05 2139.46 1019.5 2139.41 1019.58 2139.35 1019.67 2137.98 1021.5 2136.37 1023.65 2134.76 1025.79 2130.73 1030.52 2127.43 1034.16 2124.12 1037.79 2113.87 1048.37 2104.65 1057.67 2091.8 1070.63 2087.96 1074.84 2088.21 1075.69 2088.4 1076.31 2088.73 1077.62 2088.96 1078.61 2089.19 1079.6 2090.43 1082.98 2091.72 1086.12 2093.02 1089.26 2095.46 1094.4 2097.14 1097.53 2098.83 1100.67 2101.43 1105.27 2102.93 1107.75 2104.42 1110.22 2109.28 1117.93 2113.73 1124.86 2118.18 1131.8 2122.45 1138.14 2123.21 1138.94 2124.38 1140.16 2124.84 1140.3 2125.99 1139.76 2126.75 1139.41 2133.57 1133.08 2141.14 1125.69 2148.71 1118.3 2155.2 1111.98 2155.56 1111.64 2155.92 1111.3 2158.82 1108.69 2162 1105.84 2165.18 1102.99 2168.56 1100.25 2169.51 1099.76 2170.47 1099.26 2172.77 1098.67 2174.64 1098.44 2176.5 1098.2 2178.57 1098.18 2179.23 1098.39 2179.89 1098.6 2182.04 1100.73 2184.01 1103.11 2185.98 1105.5 2189.32 1110.06 2191.44 1113.26 2193.56 1116.46 2199.35 1125.32 2204.3 1132.95 2209.26 1140.57 2218.26 1154.27 2224.3 1163.38 2230.34 1172.5 2236.55 1181.61 2238.1 1183.65 2239.66 1185.68 2243.76 1190.85 2247.22 1195.15 2250.68 1199.44 2256.77 1206.83 2260.76 1211.56 2264.75 1216.29 2269.04 1221.49 2270.29 1223.12 2271.54 1224.75 2272.89 1226.09 2273.29 1226.09 2273.7 1226.09 2276.87 1225.26 2280.34 1224.25 2283.81 1223.24 2288.95 1221.77 2291.76 1221 2294.57 1220.22 2298.89 1219.02 2301.37 1218.33 2303.85 1217.64 2308.18 1216.51 2310.99 1215.83 2313.8 1215.14 2318.26 1214.07 2320.91 1213.45 2323.55 1212.83 2329.23 1211.49 2333.53 1210.47 2337.82 1209.45 2343.23 1208.06 2345.55 1207.39 2347.86 1206.71 2352.82 1205.19 2356.58 1204.01 2360.75 1202.69 2363.53 1201.48 2363.75 1200.9 2363.94 1200.38 2364.66 1199.18 2365.34 1198.23 2366.03 1197.28 2368.07 1195.49 2369.89 1194.24 2371.71 1192.99 2374.71 1190.49 2376.55 1188.67 2378.4 1186.86 2380.86 1184.2 2382.01 1182.75 2383.17 1181.31 2387.68 1174.52 2392.03 1167.66 2397.48 1159.09 2402.81 1149.53 2409.11 1137.03 2414.16 1127.04 2420.04 1115.09 2422.18 1110.48 2424.33 1105.87 2429.44 1096 2433.54 1088.55 2437.63 1081.1 2442.66 1072.44 2444.7 1069.3 2446.74 1066.16 2451.12 1060.22 2454.42 1056.08 2457.73 1051.95 2462.78 1046.37 2465.64 1043.67 2468.49 1040.97 2473.21 1037 2476.11 1034.84 2479.01 1032.68 2483.55 1029.7 2486.19 1028.23 2488.84 1026.76 2492.34 1025.11 2493.97 1024.57 2496.33 1023.78 2499.22 1023.59 2508.09 1023.65 2514.23 1023.69 2519.62 1023.7 2520.07 1023.68 2520.69 1023.65 2520.78 1023.1 2520.46 1021.39 2520.22 1020.15 2520.06 1016.71 2520.09 1013.73 2520.13 1010.76 2520.69 1004.54 2521.33 999.919 2521.97 995.292 2523.06 989.076 2523.76 986.102 2524.45 983.129 2525.94 978.137 2527.06 975.01 2528.19 971.883 2529.05 969.266 2528.98 969.194 2528.91 969.121 2524.52 967.576 2519.24 965.761 2513.96 963.946 2504.9 960.835 2499.11 958.849 2493.33 956.863 2486.03 954.784 2482.88 954.228 2479.37 953.607 2473.82 953.206 2468.46 953.188ZM1856.9 932.959C1851.61 932.957 1841.88 933.356 1835.27 933.843 1828.65 934.331 1819.89 934.999 1815.78 935.329 1811.67 935.659 1806.94 936.09 1805.26 936.288 1803.58 936.485 1799.33 937.17 1795.8 937.809 1792.28 938.448 1786.33 939.874 1782.57 940.977 1778.82 942.08 1774.31 943.714 1772.54 944.609 1770.78 945.503 1764.89 949.061 1759.46 952.516 1754.03 955.971 1744.93 962.265 1739.24 966.503 1733.54 970.741 1727.01 975.938 1724.71 978.052 1722.42 980.167 1718.14 984.599 1715.19 987.904 1712.25 991.208 1707.98 996.689 1705.7 1000.08 1703.42 1003.48 1700.77 1007.94 1699.81 1010 1698.86 1012.05 1697.66 1014.68 1697.15 1015.84 1696.64 1016.99 1695.5 1019.83 1694.63 1022.14 1693.76 1024.46 1692.27 1029.37 1691.32 1033.07 1690.37 1036.77 1689.31 1042.44 1688.98 1045.69 1688.64 1048.93 1688.04 1054.96 1687.66 1059.09 1687.27 1063.22 1687.09 1069.03 1687.26 1072 1687.43 1074.98 1687.87 1079.44 1688.24 1081.91 1688.61 1084.39 1689.19 1088.45 1689.53 1090.93 1689.88 1093.4 1690.4 1096.65 1690.69 1098.13 1690.98 1099.62 1691.55 1102.59 1691.94 1104.74 1692.34 1106.89 1693.74 1112.97 1695.05 1118.26 1696.36 1123.54 1697.81 1129.39 1698.26 1131.25 1698.71 1133.11 1699.47 1135.68 1699.95 1136.96 1700.43 1138.24 1701.49 1141.45 1702.32 1144.09 1703.14 1146.73 1705.31 1153.62 1707.15 1159.41 1708.99 1165.19 1711.03 1171.81 1711.68 1174.12 1712.33 1176.44 1713.54 1181.84 1714.37 1186.14 1715.2 1190.43 1716.16 1195.97 1716.52 1198.45 1716.88 1200.93 1717.85 1207.82 1718.68 1213.77 1719.51 1219.72 1720.48 1226.03 1720.83 1227.79 1721.48 1231 1721.48 1231 1723.68 1230.61 1724.89 1230.39 1727.63 1229.82 1729.78 1229.33 1731.93 1228.85 1739.91 1227.23 1747.51 1225.74 1755.12 1224.25 1762.15 1222.79 1763.14 1222.5 1764.13 1222.21 1768.19 1220.95 1772.16 1219.7 1776.12 1218.46 1780.86 1216.8 1782.67 1216.03 1784.49 1215.26 1787.33 1213.91 1788.98 1213.04 1790.64 1212.17 1792.8 1210.55 1793.79 1209.45 1795 1208.09 1797.62 1206.56 1801.74 1204.78 1805.12 1203.33 1809.44 1201.28 1811.35 1200.24 1813.27 1199.19 1817.48 1196.45 1820.72 1194.14 1823.96 1191.83 1828.42 1188.28 1830.64 1186.24 1832.85 1184.2 1835.82 1181.32 1837.24 1179.83 1838.66 1178.34 1841.81 1174.7 1844.24 1171.72 1846.67 1168.75 1850.93 1162.94 1853.7 1158.81 1856.46 1154.67 1860.03 1149.13 1861.61 1146.49 1863.2 1143.85 1866 1139.25 1867.85 1136.28 1869.69 1133.31 1875.76 1123.07 1881.33 1113.52 1886.9 1103.98 1891.46 1096.09 1891.46 1095.98 1891.46 1095.88 1893.07 1093.24 1895.04 1090.11 1897.01 1086.99 1899.93 1082.45 1901.52 1080.02 1903.11 1077.59 1906.02 1073.31 1907.99 1070.5 1910.1 1067.48 1915.59 1061.38 1921.45 1055.55 1927.58 1049.46 1933.06 1044.59 1935.84 1042.77 1938.32 1041.16 1942.28 1038.93 1944.66 1037.82 1947.04 1036.71 1949.83 1035.61 1950.87 1035.38 1951.9 1035.15 1952.91 1034.72 1953.1 1034.41 1953.29 1034.11 1953.94 1033.86 1954.56 1033.86 1955.17 1033.86 1955.79 1033.52 1955.93 1033.11 1956.07 1032.7 1955.85 1030.87 1955.44 1029.05 1955.03 1027.23 1954.36 1023.43 1953.95 1020.6 1953.48 1017.35 1953.33 1012.38 1953.54 1007.09 1953.73 1002.48 1954.31 996.689 1954.84 994.211 1955.36 991.734 1956.09 988.488 1956.46 987.003 1956.82 985.515 1958.08 981.372 1959.25 977.791 1960.42 974.213 1962.69 969.006 1964.29 966.221 1965.89 963.436 1967.19 961.075 1967.19 960.973 1967.19 960.872 1963.47 959.073 1958.93 956.977 1954.38 954.88 1948.5 952.142 1945.86 950.891 1943.21 949.641 1937.53 946.717 1933.23 944.394 1928.94 942.071 1923.26 939.323 1920.61 938.286 1916.17 936.546 1915.02 936.367 1905.59 935.932 1899.97 935.673 1893.74 935.167 1891.76 934.807 1889.78 934.446 1883.29 933.884 1877.34 933.557 1871.39 933.23 1862.19 932.961 1856.9 932.959ZM1865.68 902.002C1865.22 902.002 1864.01 903.041 1862.98 904.309 1861.21 906.489 1861.1 906.944 1860.9 912.588 1860.79 915.873 1860.85 918.97 1861.04 919.47 1861.32 920.184 1862.27 920.341 1865.46 920.202 1869.52 920.024 1869.52 920.024 1869.34 917.921 1869.24 916.765 1868.73 913.792 1868.2 911.313 1867.68 908.836 1867.09 905.727 1866.89 904.405 1866.66 902.931 1866.19 902.002 1865.68 902.002ZM2377.8 883.536C2377.5 883.239 2376.45 883.707 2375.36 884.62 2374.31 885.504 2373.1 886.938 2372.66 887.807 2372.23 888.676 2371.44 891.28 2370.89 893.592 2370.35 895.905 2369.49 899.809 2368.98 902.268 2368.47 904.727 2367.23 909.593 2366.22 913.081 2365.21 916.569 2363.48 921.315 2362.38 923.628 2361.16 926.181 2359.07 929.164 2357.06 931.22 2355.23 933.083 2352.3 935.418 2350.55 936.409 2348.79 937.4 2342.08 940.305 2335.63 942.863 2329.18 945.422 2322.15 948.026 2320 948.65 2317.85 949.274 2313.12 950.491 2309.49 951.355 2305.85 952.219 2301.66 953.178 2300.17 953.487 2298.68 953.795 2292.87 954.231 2287.25 954.456 2277.03 954.865 2277.03 954.865 2276.85 958.866 2276.68 962.814 2276.7 962.872 2278.36 963.235 2279.28 963.437 2282.06 963.85 2284.54 964.153 2287.02 964.456 2291.48 965.008 2294.46 965.382 2297.43 965.755 2303.25 966.292 2307.38 966.576 2311.51 966.859 2320.17 966.973 2326.61 966.829 2333.06 966.685 2341.31 966.183 2344.95 965.715 2348.58 965.247 2353.99 964.435 2356.97 963.911 2359.94 963.388 2364.81 962.4 2367.79 961.716 2370.76 961.033 2373.67 960.048 2374.25 959.528 2374.83 959.008 2375.3 958.158 2375.3 957.639 2375.3 957.12 2376.21 953.715 2377.33 950.073 2378.44 946.431 2379.66 941.965 2380.04 940.147 2380.42 938.33 2381 934.553 2381.32 931.753 2381.65 928.953 2381.9 922.601 2381.9 917.637 2381.89 912.672 2381.49 905.096 2381.01 900.801 2380.52 896.506 2379.72 890.982 2379.22 888.526 2378.73 886.069 2378.09 883.823 2377.8 883.536ZM1462.51 837.703 1450.3 863.308 1480.94 900.001 1433.06 899.448 1420.72 925.32 1498.89 922.791 1529.85 937.539 1540.72 914.734 1509.77 899.987ZM2934.4 836.534 2916.56 845.791 2911.93 836.874 2893.3 846.539 2897.93 855.455 2868.8 870.565C2859.79 875.238 2854.48 880.88 2852.86 887.49 2851.24 894.101 2852.54 901.471 2856.77 909.6L2862.69 921.008 2881.71 911.139 2877.56 903.141C2876.29 900.693 2875.86 898.695 2876.28 897.147 2876.7 895.599 2878 894.258 2880.18 893.123L2909.57 877.878 2917.2 892.564 2935.83 882.899 2928.2 868.213 2946.05 858.956ZM1811.97 779.885C1814.91 779.949 1817.55 780.095 1819.58 780.316 1823.19 780.709 1827.8 781.576 1829.83 782.241 1831.86 782.906 1835.8 784.596 1838.6 785.996 1841.39 787.395 1846.11 789.851 1849.09 791.453 1852.06 793.055 1856.71 796.079 1859.41 798.173 1863.71 801.504 1864.48 802.398 1865.57 805.309 1866.26 807.14 1866.82 809.017 1866.82 809.48 1866.82 809.944 1867.06 810.471 1867.35 810.651 1867.64 810.831 1868.05 812.672 1868.26 814.741 1868.47 816.811 1868.9 822.201 1869.21 826.72 1869.78 834.936 1869.78 834.936 1873.5 842.639 1875.55 846.875 1877.58 851.264 1878 852.39 1878.42 853.517 1879.21 857.093 1879.76 860.337 1880.33 863.725 1880.62 867.839 1880.45 870.003 1880.29 872.074 1879.86 878.365 1879.5 883.981 1879.06 890.854 1879.04 895.568 1879.44 898.398 1879.76 900.711 1880.59 905.712 1881.28 909.511 1881.97 913.311 1882.69 917.456 1882.88 918.724 1883.11 920.301 1883.62 921.195 1884.49 921.555 1885.18 921.845 1888.19 922.386 1891.16 922.758 1894.14 923.13 1901.3 923.646 1907.09 923.904 1916.53 924.326 1918.19 924.566 1923.32 926.253 1926.46 927.286 1933.89 930.582 1939.85 933.578 1945.8 936.574 1952.56 939.795 1954.87 940.736 1957.19 941.678 1962.32 943.978 1966.29 945.849 1970.26 947.719 1975.85 950.445 1978.71 951.907 1981.57 953.369 1984.23 954.564 1984.63 954.564 1985.02 954.564 1988.63 955.879 1992.65 957.485 1996.66 959.092 2001.84 960.959 2004.16 961.634 2006.47 962.31 2009.8 963.158 2011.55 963.519 2013.3 963.88 2016.37 964.176 2018.37 964.176 2022.01 964.176 2022.01 964.176 2021.64 960.121 2021.44 957.891 2021.51 953.228 2021.81 949.759 2022.33 943.689 2022.29 943.264 2020.65 938.493 2019.71 935.766 2018.63 931.346 2018.24 928.671 2017.84 925.996 2017.67 922.209 2017.85 920.255 2018.02 918.301 2018.76 915.558 2019.48 914.158 2020.2 912.759 2021.61 910.755 2022.62 909.706 2024.05 908.206 2024.37 907.435 2024.11 906.102 2023.92 905.169 2023.35 902.784 2022.84 900.801 2022.33 898.819 2021.9 896.226 2021.9 895.04 2021.89 893.854 2022.43 890.75 2023.1 888.143 2023.99 884.68 2025.44 881.53 2028.49 876.453 2030.78 872.631 2034.49 867.394 2036.74 864.815 2038.98 862.235 2041.86 858.87 2043.13 857.335 2044.41 855.802 2049.01 851.068 2053.35 846.817 2057.7 842.566 2063.42 837.398 2066.06 835.333 2068.71 833.268 2071.41 831.414 2072.07 831.212 2072.74 831.01 2075.19 830.576 2077.53 830.248 2080.36 829.851 2083.08 829.852 2085.64 830.25 2087.77 830.581 2091.8 831.536 2094.61 832.374 2097.42 833.213 2101.21 834.467 2103.03 835.163 2104.85 835.858 2108.5 837.499 2111.14 838.809 2113.79 840.121 2118.38 842.681 2121.36 844.499 2124.33 846.317 2127.99 848.477 2129.47 849.299 2130.96 850.121 2133.61 851.881 2135.36 853.21 2137.1 854.54 2139.89 857.111 2141.55 858.925 2143.21 860.739 2145.19 863.469 2145.96 864.992 2146.73 866.515 2147.73 869.384 2148.19 871.366 2148.76 873.874 2149.01 879.354 2149.01 889.387 2149.01 898.124 2148.7 905.816 2148.23 908.91 2147.81 911.719 2147.22 914.692 2146.93 915.518 2146.64 916.344 2145.4 921.345 2144.18 926.631 2142.96 931.917 2141.19 939.486 2140.25 943.451 2139.3 947.416 2137.84 952.667 2137 955.12 2136.17 957.573 2135.49 960.076 2135.49 960.681 2135.49 961.68 2135.89 961.747 2139.84 961.414 2142.24 961.211 2147.71 960.66 2152.01 960.189 2156.31 959.717 2164.56 958.804 2170.34 958.16 2176.13 957.516 2188.17 956.701 2197.09 956.348 2206.02 955.996 2220.49 955.878 2229.25 956.088 2238.01 956.297 2247.47 956.711 2250.28 957.007 2253.09 957.303 2257.08 958.14 2259.14 958.866 2261.2 959.593 2263.07 960.003 2263.3 959.778 2263.52 959.553 2263.83 957.919 2263.97 956.149 2264.12 954.378 2263.93 950.526 2263.54 947.589 2263.16 944.653 2262.28 940.357 2261.6 938.045 2260.92 935.732 2259.6 931.92 2258.67 929.574 2257.74 927.228 2254.96 921.146 2252.49 916.058 2250.02 910.971 2247.18 904.916 2246.19 902.603 2245.2 900.29 2243.12 895.289 2241.56 891.49 2240.01 887.691 2238.1 882.487 2237.33 879.928 2236.55 877.369 2235.64 873.226 2235.29 870.724 2234.94 868.221 2234.66 864.32 2234.66 862.055 2234.66 859.79 2234.94 855.823 2235.3 853.238 2235.65 850.654 2236.74 846.106 2237.72 843.133 2238.7 840.159 2240.84 835.023 2242.49 831.719 2244.12 828.415 2247.59 822.874 2250.18 819.405 2252.77 815.936 2256.48 811.646 2258.42 809.872 2260.36 808.099 2262.82 806.071 2263.87 805.367 2264.92 804.663 2268.16 802.504 2271.07 800.568 2273.98 798.633 2277.73 796.415 2279.4 795.64 2281.07 794.864 2285.26 793.401 2288.72 792.388 2292.17 791.376 2298.39 789.996 2302.54 789.321 2306.69 788.646 2312.93 787.714 2316.4 787.249 2319.87 786.785 2326.63 786.404 2331.42 786.402 2336.22 786.4 2344.06 786.646 2348.85 786.948 2354.95 787.333 2358.73 787.886 2361.46 788.791 2363.59 789.502 2366.89 790.865 2368.78 791.82 2370.67 792.774 2373.7 795.019 2375.5 796.808 2377.31 798.598 2379.49 801.268 2380.36 802.741 2381.22 804.216 2382.61 807.09 2383.44 809.128 2384.26 811.167 2385.35 814.381 2385.85 816.27 2386.34 818.159 2387.34 823.355 2388.06 827.815 2389.2 834.828 2389.38 838.401 2389.41 854.246 2389.42 864.323 2389.66 873.649 2389.93 874.97 2390.2 876.292 2391.06 880.617 2391.84 884.582 2392.61 888.546 2393.56 894.475 2393.95 897.756 2394.33 901.038 2394.65 910.094 2394.66 917.88 2394.67 928.172 2394.41 933.76 2393.68 938.345 2393.13 941.814 2392.14 946.545 2391.47 948.857 2390.8 951.17 2390.1 953.563 2389.93 954.174 2389.64 955.151 2389.85 955.237 2391.62 954.877 2392.72 954.652 2395.05 953.952 2396.79 953.323 2398.52 952.693 2401.9 951.648 2404.3 951 2406.7 950.353 2412.31 948.844 2416.77 947.648 2421.23 946.451 2428.81 944.701 2433.6 943.759 2438.39 942.818 2445.29 941.73 2448.93 941.343 2452.56 940.956 2457.26 940.406 2459.37 940.121 2461.47 939.837 2463.27 939.523 2463.37 939.425 2463.46 939.327 2463.13 935.597 2462.63 931.137 2462.13 926.676 2461.72 917.756 2461.71 911.313 2461.7 904.871 2462.01 896.491 2462.39 892.691 2462.78 888.892 2463.37 884.432 2463.71 882.78 2464.06 881.128 2464.75 878.019 2465.25 875.871 2465.75 873.724 2467.63 869.019 2469.42 865.416 2471.22 861.813 2474.24 856.705 2476.13 854.064 2478.03 851.424 2481.63 846.938 2484.14 844.096 2486.65 841.253 2490.57 837.133 2492.85 834.938 2495.14 832.744 2498.65 829.59 2500.64 827.93 2502.64 826.269 2505.75 824.248 2507.56 823.438 2509.36 822.628 2512.59 821.267 2514.74 820.414 2516.89 819.561 2520.15 818.599 2521.98 818.276 2523.81 817.953 2528.54 817.505 2532.5 817.281 2538.05 816.965 2541.05 817.106 2545.69 817.902 2549 818.469 2554.41 819.595 2557.72 820.404 2561.02 821.214 2566.16 822.698 2569.13 823.703 2572.11 824.707 2578.06 827.245 2582.36 829.342 2586.66 831.439 2592.2 834.276 2594.68 835.646 2597.16 837.016 2601.76 839.84 2604.9 841.922 2608.04 844.004 2613.32 847.849 2616.62 850.466 2619.94 853.084 2623.9 856.694 2625.42 858.49 2626.96 860.286 2629.05 863.192 2630.08 864.948 2631.12 866.705 2632.78 870.269 2633.78 872.87 2634.79 875.47 2636.31 880.385 2637.17 883.793 2638.56 889.369 2638.72 891.069 2638.67 900.801 2638.64 908.576 2638.27 913.932 2637.36 919.864 2636.67 924.402 2635.55 930.214 2634.88 932.78 2634.21 935.345 2632.75 940.147 2631.64 943.451 2630.53 946.755 2628.81 951.756 2627.83 954.564 2626.84 957.372 2625.45 961.644 2624.73 964.057 2624.01 966.47 2623.55 968.768 2623.71 969.163 2623.86 969.559 2626.79 970.813 2630.22 971.95 2633.65 973.087 2636.86 974.225 2637.35 974.479 2637.85 974.733 2641.77 976.318 2646.07 978.001 2650.36 979.681 2656.32 982.285 2659.29 983.785 2662.27 985.285 2665.79 987.403 2667.12 988.493 2673.32 994.029 2673.06 1001.98 2673.02 1006.22 2672.94 1013.53 2672.63 1016.29 2671.08 1023.34 2670.06 1027.97 2669.07 1032.33 2668.87 1033.04 2668.59 1034.02 2669.94 1036.23 2674.79 1042.65 2678.25 1047.23 2682.36 1053.14 2683.92 1055.78 2685.49 1058.43 2688.2 1063.56 2689.96 1067.2 2691.71 1070.83 2695.1 1078.81 2697.48 1084.92 2699.87 1091.03 2702.17 1096.84 2702.6 1097.83 2703.02 1098.83 2704.08 1101.66 2704.95 1104.14 2705.82 1106.62 2707.31 1110.94 2708.25 1113.75 2709.19 1116.56 2710.56 1120.75 2711.28 1123.06 2712.01 1125.38 2713.94 1132.54 2715.58 1138.98 2717.22 1145.43 2719.23 1154.07 2720.05 1158.2 2720.87 1162.33 2721.81 1167.2 2722.13 1169.02 2722.45 1170.84 2723.13 1175.43 2723.64 1179.23 2724.15 1183.03 2724.95 1191.95 2725.42 1199.05 2725.9 1206.16 2726.29 1220.21 2726.28 1230.29 2726.28 1240.37 2726.02 1255.51 2725.72 1263.93 2725.41 1272.35 2724.86 1281.82 2724.5 1284.96 2723.18 1301.21 2722.59 1314.5 2721.2 1329.71 2720.71 1334.99 2719.89 1341.62 2719.37 1344.42 2718.86 1347.23 2718.18 1351.05 2717.86 1352.92 2717.55 1354.78 2716.86 1357.32 2716.34 1358.57 2715.51 1360.54 2715.44 1363.28 2715.8 1379.81 2716.1 1394.22 2715.97 1402.81 2715.22 1415.49 2714.69 1424.68 2713.99 1439.01 2713.67 1447.33 2713.35 1455.65 2712.82 1466.65 2712.5 1471.77 2711.12 1493.91 2709 1516.63 2707.07 1537.36 2707.07 1538.24 2706.54 1542.16 2705.88 1546.06 2705.23 1549.97 2704.43 1554.93 2704.11 1557.08 2703.79 1559.22 2703.24 1562.6 2702.88 1564.58 2702.53 1566.57 2701.46 1574 2700.5 1581.1 2699.55 1588.21 2698.46 1597.8 2698.08 1602.43 2697.7 1607.05 2697.12 1613.41 2696.79 1616.55 2696.62 1618.11 2696.44 1621.91 2696.27 1626.75L2696 1637.88 2692.17 1642.99C2666.18 1674.47 2637.21 1703.42 2605.71 1729.4L2596.9 1735.99 2596.62 1733.75C2596.19 1730.11 2595.81 1726.69 2595.57 1724.37 2595.09 1719.75 2594.54 1715.15 2594.35 1714.16 2594.16 1713.17 2593.33 1706.41 2592.51 1699.14 2591.68 1691.87 2590.75 1683.64 2590.43 1680.85 2590.12 1678.06 2589.2 1667.25 2588.38 1656.82 2587.56 1646.4 2586.62 1634.63 2586.29 1630.66 2585.95 1626.7 2585.42 1620.89 2585.1 1617.75 2584.78 1614.61 2584.08 1607.86 2583.55 1602.75 2583.03 1597.63 2582.34 1591.55 2582.03 1589.23 2581.71 1586.91 2581.18 1582.91 2580.84 1580.36 2580.5 1577.8 2579.99 1575.09 2579.72 1574.35 2579.3 1573.24 2579.05 1573.74 2578.28 1577.2 2577.77 1579.51 2577.17 1582.62 2576.95 1584.11 2576.73 1585.59 2576.05 1589.51 2575.43 1592.82 2574.81 1596.12 2573.62 1603.15 2572.77 1608.44 2571.93 1613.72 2570.85 1620.75 2570.37 1624.05 2569.89 1627.36 2568.83 1634.39 2568 1639.67 2567.18 1644.96 2566.09 1651.72 2565.59 1654.69 2565.09 1657.66 2564.01 1664.42 2563.18 1669.71 2562.35 1675 2561.12 1683.37 2560.43 1688.33 2559.74 1693.29 2558.64 1702.07 2557.99 1707.85 2557.33 1713.63 2556.26 1723.65 2555.62 1730.1 2554.98 1736.56 2554.06 1745.75 2553.57 1750.53 2553.08 1755.3 2552.52 1761.78 2552.32 1764.92L2552.03 1768.88 2504.02 1798.03 2470.28 1814.27 2470.39 1812.98C2470.82 1807.16 2471.16 1792.41 2471.16 1779.94 2471.16 1767.55 2470.83 1751.47 2470.41 1744.19 2470 1736.93 2469.38 1727.2 2469.02 1722.57 2468.67 1717.95 2468 1709.83 2467.53 1704.55 2467.05 1699.26 2466.39 1692.23 2466.06 1688.93 2465.72 1685.63 2465.04 1678.06 2464.54 1672.11 2464.04 1666.16 2463.11 1653.86 2462.46 1644.78 2461.82 1635.69 2461.02 1625.42 2460.69 1621.95 2460.36 1618.48 2459.8 1612.27 2459.44 1608.13 2459.09 1604.01 2458.54 1598.33 2458.23 1595.52 2457.92 1592.71 2456.97 1584.74 2456.11 1577.8 2455.27 1570.86 2454.43 1564.71 2454.26 1564.13 2454.09 1563.55 2453.45 1559.63 2452.83 1555.42 2452.21 1551.21 2451.09 1543.64 2450.34 1538.6 2449.59 1533.57 2448.8 1529.44 2448.59 1529.44 2448.37 1529.44 2448.03 1531.27 2447.82 1533.5 2447.62 1535.73 2447.17 1549.58 2446.83 1564.28 2446.48 1578.99 2445.94 1600.07 2445.61 1611.14 2445.29 1622.21 2445.02 1645.73 2445.02 1663.4 2445.02 1681.08 2444.75 1703.24 2444.43 1712.66 2444.1 1722.07 2443.55 1734.1 2443.2 1739.39 2442.85 1744.68 2442.18 1753.87 2441.7 1759.82 2441.23 1765.76 2440.56 1775.36 2440.21 1781.14 2439.86 1786.92 2439.32 1793.82 2439.01 1796.46 2438.71 1799.1 2438.15 1805.45 2437.79 1810.57 2437.43 1815.69 2436.88 1822.99 2436.58 1826.79L2436.37 1829.23 2389.67 1846.31 2368.57 1851.73 2367.82 1844.51C2367.34 1839.89 2366.65 1832.46 2366.29 1827.99 2365.93 1823.53 2365.35 1817.59 2365.01 1814.78 2364.66 1811.97 2363.75 1805.08 2362.99 1799.46 2362.22 1793.85 2361.29 1786.68 2360.92 1783.54 2360.55 1780.4 2359.67 1772.84 2358.96 1766.72 2358.26 1760.61 2357.56 1752.3 2357.42 1748.26 2357.24 1742.87 2357.51 1738.53 2358.43 1732.04 2359.11 1727.16 2359.97 1719.66 2360.32 1715.36 2360.67 1711.07 2361.18 1704.17 2361.45 1700.04 2361.72 1695.91 2361.84 1687.81 2361.7 1682.02 2361.56 1676.24 2361.17 1668.27 2360.83 1664.3 2360.48 1660.34 2359.93 1654.79 2359.6 1651.99 2359.26 1649.18 2358.33 1643.5 2357.53 1639.37 2356.73 1635.24 2355.37 1629.16 2354.52 1625.86 2353.66 1622.55 2351.8 1616.34 2350.39 1612.04 2348.97 1607.74 2347.23 1602.4 2346.52 1600.16 2345.81 1597.92 2344.71 1594 2344.07 1591.45 2343.44 1588.9 2342.52 1585.19 2342.03 1583.21 2341.54 1581.22 2340.59 1577.3 2339.92 1574.49 2339.25 1571.69 2338.12 1566.15 2337.4 1562.18 2336.68 1558.22 2335.64 1551.46 2335.1 1547.16 2334.35 1541.24 2333.97 1539.64 2333.53 1540.56 2333.17 1541.3 2332.88 1570.8 2332.75 1617.75 2332.57 1682.36 2332.69 1696.03 2333.51 1709.05 2334.04 1717.48 2334.73 1727.35 2335.05 1730.98 2335.36 1734.62 2335.9 1739.89 2336.23 1742.69 2336.56 1745.5 2337.38 1753.21 2338.04 1759.81 2338.71 1766.42 2339.65 1774.8 2340.13 1778.44 2340.62 1782.07 2341.43 1788.29 2341.94 1792.25 2342.45 1796.22 2343.54 1804.6 2344.37 1810.88 2345.19 1817.15 2346.41 1827.02 2347.07 1832.8 2347.39 1835.69 2347.8 1839.84 2348.18 1844.2L2349.17 1856.72 2328.54 1862.02 2278.22 1869.69 2278.01 1868.84C2277.34 1866.03 2276.1 1860.22 2275.25 1855.93 2274.41 1851.63 2273.17 1845.01 2272.51 1841.21 2271.84 1837.41 2270.78 1831.33 2270.14 1827.7 2269.51 1824.06 2267.9 1815.68 2266.58 1809.07 2265.26 1802.47 2262.67 1790.5 2260.81 1782.48 2258.95 1774.46 2256.78 1765.54 2255.97 1762.65 2255.16 1759.77 2253.3 1753.09 2251.83 1747.8 2250.35 1742.51 2248.22 1734.54 2247.08 1730.08 2245.94 1725.62 2244.44 1719.54 2243.75 1716.56 2243.07 1713.59 2241.93 1708.05 2241.22 1704.25 2240.52 1700.45 2239.7 1695.99 2239.4 1694.34 2239.1 1692.69 2238.6 1689.71 2238.3 1687.73 2237.99 1685.75 2237.18 1680.74 2236.49 1676.62 2235.8 1672.49 2234.95 1667.35 2234.61 1665.2 2234.27 1663.06 2233.73 1659.68 2233.4 1657.69 2233.08 1655.71 2232.26 1650.31 2231.59 1645.68 2230.92 1641.05 2229.85 1633.89 2229.22 1629.76 2228.59 1625.63 2227.41 1617.93 2226.59 1612.64 2225.77 1607.35 2224.69 1600.6 2224.18 1597.62 2223.68 1594.65 2222.7 1588.7 2222.01 1584.41 2221.32 1580.11 2220.22 1573.22 2219.57 1569.09 2218.92 1564.96 2217.71 1557.26 2216.88 1551.97 2216.06 1546.68 2214.56 1536.95 2213.57 1530.34 2212.58 1523.74 2211.38 1515.49 2210.91 1512.02 2210.44 1508.55 2209.76 1503.82 2209.41 1501.51 2209.06 1499.2 2208.1 1491.63 2207.29 1484.69 2206.47 1477.75 2205.42 1467.62 2204.95 1462.16 2204.48 1456.71 2203.76 1447.69 2203.35 1442.12 2202.79 1434.56 2202.72 1421.57 2203.05 1390.76 2203.3 1368.09 2203.76 1347.77 2204.08 1345.63 2204.4 1343.48 2204.89 1335.77 2205.17 1328.51 2205.44 1321.24 2205.86 1309.21 2206.1 1301.78L2206.53 1288.26 2198.77 1280.57C2193.79 1275.64 2190.7 1273.01 2190.15 1273.22 2189.67 1273.4 2188.55 1274.97 2187.67 1276.7 2186.78 1278.43 2185.39 1282.42 2184.58 1285.55 2183.76 1288.69 2182.54 1293.69 2181.86 1296.67 2181.17 1299.64 2180.21 1304.12 2179.71 1306.62 2179.21 1309.11 2178.14 1313.84 2177.34 1317.13 2176.53 1320.41 2174.65 1327.69 2173.15 1333.31 2171.64 1338.93 2169.83 1346.36 2169.11 1349.83 2168.39 1353.3 2167.4 1358.44 2166.91 1361.24 2166.42 1364.05 2166.01 1367.3 2165.99 1368.45 2165.98 1369.61 2166.69 1374.61 2167.57 1379.57 2168.46 1384.52 2169.57 1393.85 2170.05 1400.29 2170.52 1406.73 2171.2 1415.52 2171.55 1419.81 2171.9 1424.11 2172.73 1434.79 2173.39 1443.54 2174.05 1452.3 2174.84 1462.16 2175.14 1465.47 2175.44 1468.77 2176.11 1476.21 2176.63 1481.99 2177.15 1487.77 2177.96 1496.55 2178.43 1501.51 2178.91 1506.47 2179.6 1515.52 2179.96 1521.63 2180.33 1527.75 2180.88 1534.91 2181.18 1537.55 2181.48 1540.2 2182.04 1551.95 2182.43 1563.68 2182.9 1577.94 2182.99 1597.55 2182.71 1622.85 2182.47 1643.67 2182.05 1672.05 2181.79 1685.93 2181.52 1699.8 2180.86 1724.54 2180.34 1740.89 2179.8 1757.25 2178.95 1777.11 2178.43 1785.04 2177.92 1792.97 2177.1 1804.19 2176.62 1809.97 2176.13 1815.76 2175.46 1823.19 2175.13 1826.49 2174.8 1829.8 2173.86 1839.26 2173.06 1847.52 2172.25 1855.78 2171.16 1866.59 2170.63 1871.55L2170.41 1873.47 2134.79 1871.68 2089.7 1864.8 2089.2 1857.31C2088.98 1854.04 2088.77 1850.81 2088.6 1848.42 2088.28 1843.63 2087.88 1837.68 2087.71 1835.2 2087.54 1832.73 2087.13 1825.29 2086.78 1818.68 2086.43 1812.08 2085.61 1800.72 2084.95 1793.45 2084.28 1786.19 2083.48 1777.4 2083.15 1773.93 2082.83 1770.46 2082.31 1764.79 2081.99 1761.32 2081.67 1757.85 2081.27 1753.93 2081.1 1752.6 2080.93 1751.28 2080.38 1742.36 2079.89 1732.78 2079.39 1723.2 2078.71 1712.12 2078.38 1708.15 2078.04 1704.19 2077.36 1695.67 2076.86 1689.23 2076.37 1682.79 2075.3 1670.76 2074.49 1662.5 2073.68 1654.24 2072.73 1644.91 2072.37 1641.78 2072.02 1638.64 2071.06 1629.45 2070.25 1621.35 2069.43 1613.26 2068.37 1602.04 2067.88 1596.42 2067.4 1590.8 2066.72 1583.91 2066.37 1581.1 2066.02 1578.3 2065.34 1571.67 2064.84 1566.39 2064.35 1561.1 2063.67 1555.15 2063.34 1553.17 2063.01 1551.19 2062.18 1545.78 2061.49 1541.16 2060.8 1536.53 2059.94 1532.21 2059.59 1531.55 2059.04 1530.52 2058.8 1530.88 2057.81 1534.26 2057.18 1536.4 2055.99 1540.86 2055.16 1544.16 2054.34 1547.46 2053.17 1552.19 2052.57 1554.67 2051.96 1557.15 2050.1 1564.72 2048.44 1571.49 2046.77 1578.27 2044.87 1586.11 2044.2 1588.91 2043.54 1591.72 2042.33 1596.86 2041.51 1600.33 2040.7 1603.8 2039.86 1607.58 2039.64 1608.74 2039.43 1609.89 2038.85 1612.53 2038.35 1614.59 2037.86 1616.66 2037.07 1620.44 2036.6 1623 2036.13 1625.56 2034.91 1631.98 2033.88 1637.27 2032.86 1642.56 2031.37 1650.26 2030.57 1654.39 2029.77 1658.52 2028.32 1665.68 2027.35 1670.31 2026.38 1674.93 2024.89 1681.83 2024.05 1685.63 2023.2 1689.43 2021.82 1695.51 2020.99 1699.14 2020.16 1702.78 2018.79 1708.86 2017.94 1712.66 2017.09 1716.46 2015.87 1722 2015.22 1724.97 2014.58 1727.95 2013.54 1732.95 2012.91 1736.09 2012.29 1739.22 2011.22 1744.77 2010.54 1748.4 2009.85 1752.03 2008.62 1759.2 2007.8 1764.32 2006.98 1769.44 2005.9 1776.74 2005.4 1780.54 2004.9 1784.34 2004.22 1789.45 2003.88 1791.89 2003.54 1794.33 2002.86 1799.74 2002.36 1803.9 2001.86 1808.07 2001.05 1814.58 2000.56 1818.38 2000.08 1822.18 1999.38 1827.86 1999.02 1831 1998.66 1834.14 1998.12 1838.6 1997.82 1840.91L1997.73 1841.7 1951.73 1824.87C1932.66 1816.81 1914.05 1807.84 1895.98 1798.03L1856.99 1774.35 1857.2 1768.41C1857.42 1763.24 1857.63 1758.96 1857.79 1756.81 1858.1 1752.52 1858.64 1744.81 1858.99 1739.69 1859.33 1734.57 1860.01 1724.57 1860.51 1717.46 1861.01 1710.36 1861.68 1700.77 1862.01 1696.14 1862.33 1691.51 1862.87 1683.54 1863.2 1678.42 1863.54 1673.3 1864.08 1664.64 1864.41 1659.18 1864.75 1653.72 1865.01 1645.07 1865.01 1639.96 1865.01 1634.85 1864.62 1626.61 1864.15 1621.65 1863.67 1616.7 1863.1 1611.42 1862.88 1609.94 1862.66 1608.45 1861.83 1604.4 1861.04 1600.93 1860.25 1597.46 1859.29 1593.6 1858.91 1592.37 1858.52 1591.13 1857.99 1590.12 1857.71 1590.12 1857.43 1590.12 1857.2 1595.45 1857.2 1601.98 1857.2 1608.5 1856.94 1620.19 1856.63 1627.96 1856.32 1635.72 1855.65 1654.65 1855.14 1670.01 1854.63 1685.37 1853.93 1708.62 1853.58 1721.67 1853.23 1734.72 1852.7 1747.69 1852.4 1750.5 1852.09 1753.31 1851.42 1761.42 1850.9 1768.52L1850.75 1770.57 1843.39 1766.1C1826.42 1754.64 1810.04 1742.39 1794.29 1729.4L1751.29 1690.35 1750.82 1679.02C1750.47 1669.93 1749.93 1659.66 1749.62 1656.19 1749.31 1652.72 1748.9 1647.18 1748.71 1643.88 1748.52 1640.57 1748.09 1635.03 1747.76 1631.56 1747.43 1628.09 1746.92 1624.04 1746.63 1622.55 1746.34 1621.07 1745.79 1617.69 1745.4 1615.04 1745.02 1612.4 1743.92 1606.32 1742.95 1601.53 1741.99 1596.74 1740.95 1591.87 1740.64 1590.72 1740.33 1589.56 1739.41 1586.18 1738.6 1583.21 1737.79 1580.23 1736.18 1574.69 1735.02 1570.89 1733.86 1567.09 1732.34 1561.96 1731.66 1559.48 1730.98 1557 1729.71 1551.73 1728.84 1547.76 1727.97 1543.8 1726.73 1538.12 1726.08 1535.15 1725.43 1532.18 1723.94 1525.01 1722.76 1519.23 1721.59 1513.45 1720.42 1507.5 1720.15 1506.02 1719.89 1504.53 1719.13 1500.88 1718.45 1497.9 1717.78 1494.93 1716.79 1490.61 1716.25 1488.3 1715.72 1485.98 1714.62 1481.12 1713.82 1477.48 1713.01 1473.85 1711.54 1466.41 1710.55 1460.96 1709.56 1455.51 1708.33 1447.94 1707.82 1444.14 1707.31 1440.34 1706.62 1435.34 1706.28 1433.03 1705.95 1430.72 1705.29 1425.31 1704.81 1421.02 1704.34 1416.72 1703.78 1406.31 1703.57 1397.89 1703.28 1386.45 1703.44 1378.92 1704.18 1368.15 1704.72 1360.22 1705.42 1352.25 1705.73 1350.43 1706.03 1348.61 1706.59 1345.01 1706.96 1342.43 1707.38 1339.55 1707.49 1335.02 1707.24 1330.72 1707.01 1326.74 1707.11 1321.62 1707.46 1318.89 1707.8 1316.25 1708.26 1312.96 1708.48 1311.59 1708.86 1309.23 1708.78 1309.03 1707 1308.11 1705.97 1307.58 1702.76 1305.36 1699.87 1303.18 1696.98 1301.01 1693.04 1297.7 1691.11 1295.84 1689.18 1293.98 1686.58 1290.98 1685.33 1289.16 1684.09 1287.34 1682.39 1284.5 1681.56 1282.85 1680.74 1281.2 1679.43 1277.96 1678.66 1275.64 1677.57 1272.35 1677.27 1270.13 1677.28 1265.43 1677.29 1260.04 1677.47 1259.02 1679.09 1255.52 1680.13 1253.26 1682.37 1250.01 1684.39 1247.83 1686.32 1245.75 1689.27 1243.14 1690.96 1242.02 1692.64 1240.91 1695.37 1239.33 1697.03 1238.52 1698.68 1237.71 1701.88 1236.44 1704.15 1235.7 1708.27 1234.36 1708.27 1234.36 1707.88 1230.97 1707.67 1229.11 1707.26 1226.24 1706.97 1224.58 1706.69 1222.93 1706.17 1219.69 1705.82 1217.37 1705.47 1215.06 1704.63 1209.25 1703.96 1204.46 1703.3 1199.67 1702.34 1193.45 1701.84 1190.64 1701.34 1187.84 1700.22 1182.7 1699.35 1179.23 1698.49 1175.76 1696.62 1169.41 1695.21 1165.11 1693.8 1160.82 1691.25 1152.91 1689.54 1147.53 1687.84 1142.16 1685.93 1135.81 1685.31 1133.42 1684.68 1131.03 1683.37 1125.93 1682.38 1122.1 1681.4 1118.26 1679.91 1111.64 1679.07 1107.38 1678.23 1103.12 1676.71 1093.96 1675.68 1087.02 1674.66 1080.08 1673.67 1071.16 1673.48 1067.2 1673.25 1062.14 1673.43 1058.02 1674.11 1053.38 1674.64 1049.75 1675.73 1043.12 1676.54 1038.66 1677.35 1034.2 1678.8 1027.45 1679.78 1023.65 1680.75 1019.85 1682.18 1015.39 1682.96 1013.73 1683.73 1012.08 1685.88 1008.03 1687.73 1004.72 1689.59 1001.42 1692.41 996.689 1694.01 994.211 1695.6 991.734 1698.86 987.272 1701.24 984.298 1703.61 981.327 1706.89 977.542 1708.51 975.891 1710.13 974.237 1713.26 971.224 1715.47 969.191 1717.67 967.16 1721.33 964.195 1723.58 962.604 1725.83 961.013 1727.81 959.554 1727.98 959.362 1728.14 959.171 1730.58 957.38 1733.39 955.384 1736.2 953.387 1740.26 950.567 1742.4 949.116 1744.55 947.666 1748.42 945.189 1751.01 943.613 1753.59 942.037 1755.86 940.748 1756.04 940.748 1756.22 940.748 1757.62 939.843 1759.15 938.738 1760.68 937.632 1764.22 935.46 1767 933.91 1769.78 932.361 1773.43 930.646 1775.11 930.098 1776.78 929.551 1778.75 928.507 1779.48 927.778 1780.66 926.592 1780.77 925.994 1780.53 922.052 1780.28 918.067 1780.06 917.45 1778.24 915.533 1777.14 914.369 1775.03 911.659 1773.55 909.511 1772.07 907.364 1770.1 904.275 1769.17 902.648 1768.24 901.021 1766.97 898.047 1766.36 896.041 1765.75 894.034 1765.25 891.634 1765.25 890.709 1765.25 889.784 1764.86 888.291 1764.4 887.39 1763.93 886.49 1761.63 884.09 1759.29 882.057 1756.96 880.025 1753.66 876.787 1751.98 874.864 1750.29 872.94 1747.47 869.474 1745.71 867.161 1743.95 864.849 1741.75 861.199 1740.82 859.052 1739.28 855.503 1739.13 854.517 1739.15 848.239 1739.18 841.87 1739.35 840.817 1741.42 834.744 1742.66 831.121 1744.48 826.457 1745.47 824.379 1746.46 822.302 1748.39 818.643 1749.74 816.249 1751.1 813.855 1753.89 809.328 1755.94 806.189 1758 803.05 1760.85 799.158 1762.29 797.539 1763.73 795.919 1767.37 792.4 1770.39 789.717 1775.14 785.482 1776.49 784.628 1780.62 783.235 1783.24 782.353 1786.87 781.329 1788.68 780.96 1790.5 780.592 1796.72 780.135 1802.51 779.945 1805.76 779.839 1809.02 779.821 1811.97 779.885ZM2848.95 740.547 2780.99 787.255 2795.31 808.072 2832.21 782.709C2836.76 779.584 2841.1 778.333 2845.24 778.957 2849.38 779.58 2852.81 781.881 2855.55 785.857 2858.28 789.834 2859.2 793.864 2858.3 797.948 2857.41 802.031 2854.68 805.635 2850.14 808.76L2813.23 834.123 2827.47 854.818 2867.18 827.53C2876.19 821.335 2881.64 814.093 2883.53 805.802 2885.42 797.51 2883.63 789.388 2878.16 781.435 2875.09 776.971 2871.45 773.554 2867.25 771.183 2863.05 768.812 2858.72 767.604 2854.26 767.558L2863.27 761.364ZM1529.65 733.75 1515.44 754.642 1566.78 789.527C1571.91 793.016 1574.98 797.005 1575.98 801.494 1576.97 805.983 1575.81 810.671 1572.49 815.558 1569.16 820.445 1565.26 823.21 1560.77 823.852 1556.28 824.494 1551.47 823.071 1546.33 819.583L1494.99 784.698 1480.78 805.59 1532 840.392C1539.66 845.597 1547.21 848.466 1554.66 848.997 1562.1 849.529 1568.96 848.027 1575.24 844.492 1581.52 840.956 1586.95 835.808 1591.55 829.048 1596.15 822.287 1598.97 815.245 1600.03 807.919 1601.08 800.594 1600.06 793.503 1596.98 786.646 1593.9 779.788 1588.53 773.757 1580.87 768.552ZM2775.22 690.898C2779 691.362 2782.33 693.149 2785.2 696.26 2788.21 699.516 2789.78 703.097 2789.9 707.005 2790.03 710.913 2788.5 714.337 2785.31 717.278L2763.85 694.054C2767.64 691.487 2771.43 690.435 2775.22 690.898ZM1575.97 672.617 1548.98 703.391 1566.66 718.875 1576.3 707.877 1639.77 763.482 1657.12 743.707ZM2771.42 668.387C2767.94 668.259 2764.44 668.638 2760.9 669.526 2753.82 671.301 2747.13 675.096 2740.83 680.911 2734.53 686.725 2730.24 693.106 2727.94 700.055 2725.64 707.003 2725.36 713.962 2727.11 720.931 2728.86 727.901 2732.47 734.352 2737.95 740.284 2742.5 745.204 2747.52 748.818 2753.01 751.126 2758.49 753.434 2764.05 754.438 2769.68 754.139 2775.3 753.839 2780.57 752.358 2785.49 749.695L2767.24 729.944C2761.65 731.744 2756.72 730.329 2752.44 725.699 2749.57 722.588 2748.14 719.046 2748.16 715.074 2748.18 711.102 2749.93 707.234 2753.43 703.469L2792.25 745.467C2794.33 743.946 2796.24 742.384 2797.98 740.78 2804.06 735.166 2808.19 728.97 2810.38 722.192 2812.56 715.413 2812.78 708.609 2811.03 701.779 2809.28 694.948 2805.7 688.603 2800.28 682.743 2794.73 676.738 2788.55 672.59 2781.73 670.299 2778.33 669.153 2774.89 668.516 2771.42 668.387ZM1659.7 591.326 1608.44 637.539 1651.51 685.258 1669.62 668.93C1668.35 666.494 1667.98 663.946 1668.5 661.288 1669.02 658.63 1670.52 656.18 1673.01 653.937 1676.38 650.902 1679.8 649.544 1683.27 649.862 1686.74 650.18 1690.09 652.131 1693.33 655.714 1696.63 659.371 1698.43 663.055 1698.73 666.766 1699.02 670.478 1697.45 673.883 1694.01 676.984 1691.09 679.623 1688.1 680.951 1685.07 680.969 1682.03 680.987 1679.27 680.061 1676.79 678.19L1658.46 694.715C1662.9 699.198 1667.91 702.175 1673.49 703.648 1679.06 705.12 1684.92 704.916 1691.05 703.035 1697.18 701.154 1703.17 697.574 1709.03 692.297 1717.81 684.38 1722.35 675.74 1722.66 666.376 1722.97 657.013 1719.26 648.053 1711.54 639.496 1707.38 634.889 1702.68 631.369 1697.43 628.938 1692.18 626.506 1686.63 625.679 1680.76 626.458 1674.89 627.238 1669.22 630.101 1663.73 635.049 1660.65 637.819 1658.26 640.904 1656.55 644.303 1654.84 647.702 1653.98 650.865 1653.97 653.793L1640.31 638.655 1674.55 607.781ZM2200 563.717C1827.67 563.717 1525.85 865.38 1525.85 1237.5 1525.85 1609.62 1827.67 1911.28 2200 1911.28 2572.33 1911.28 2874.16 1609.62 2874.16 1237.5 2874.16 865.38 2572.33 563.717 2200 563.717ZM2632.25 541.421 2582.68 607.31 2602.88 622.492 2629.8 586.714C2633 582.463 2636.59 580.02 2640.59 579.384 2644.58 578.749 2648.54 579.911 2652.48 582.87 2656.42 585.83 2658.64 589.314 2659.13 593.324 2659.63 597.333 2658.28 601.463 2655.08 605.714L2628.17 641.492 2648.25 656.586 2675.17 620.807C2678.37 616.556 2681.96 614.113 2685.95 613.478 2689.95 612.842 2693.91 614.004 2697.85 616.964 2701.79 619.924 2704.01 623.408 2704.5 627.417 2705 631.426 2703.65 635.556 2700.45 639.807L2673.54 675.586 2693.62 690.679 2722.58 652.185C2729.21 643.368 2731.97 634.66 2730.86 626.06 2729.75 617.46 2725.1 610.083 2716.9 603.927 2712.26 600.435 2707.11 598.35 2701.45 597.674 2695.79 596.997 2690.46 597.611 2685.45 599.516 2686.21 593.923 2685.44 588.598 2683.14 583.543 2680.84 578.487 2677.21 574.095 2672.24 570.366 2668.07 567.229 2663.72 565.225 2659.2 564.352 2654.68 563.48 2650.36 563.652 2646.24 564.869L2652.45 556.603ZM1793.98 533.906 1812.9 566.317 1791.45 578.825ZM1800.27 498.078 1775.88 512.299 1769.21 593.503 1779.49 611.113 1822.39 586.096 1832.08 602.684 1853.91 589.952 1844.22 573.364 1854.69 567.259 1843.67 548.373 1833.2 554.479ZM2584.2 486.837 2532.27 583.056 2554.52 595.05 2606.45 498.831ZM2429.82 477.201C2432.03 476.989 2434.32 477.256 2436.66 478.004 2441.26 479.469 2444.6 482.392 2446.67 486.772 2448.73 491.152 2448.77 496.486 2446.76 502.773 2444.76 509.06 2441.6 513.377 2437.28 515.724 2432.96 518.071 2428.5 518.511 2423.9 517.046 2419.3 515.581 2416.02 512.673 2414.04 508.323 2412.07 503.973 2412.08 498.654 2414.09 492.366 2416.12 485.985 2419.22 481.622 2423.38 479.278 2425.46 478.106 2427.61 477.413 2429.82 477.201ZM1878.1 459.782 1840.5 475.991 1849.81 497.559 1863.25 491.766 1896.68 569.225 1920.84 558.809ZM2524.98 459.329 2480.55 559.226 2503.64 569.489 2548.08 469.592ZM2431.93 454.904C2428.19 454.619 2424.51 454.804 2420.89 455.459 2413.65 456.77 2407.26 459.93 2401.73 464.94 2396.2 469.951 2392.15 476.491 2389.58 484.561 2386.98 492.726 2386.46 500.418 2388.04 507.639 2389.62 514.86 2392.96 521.093 2398.06 526.336 2403.16 531.579 2409.56 535.427 2417.26 537.879 2424.96 540.331 2432.46 540.909 2439.75 539.613 2447.04 538.318 2453.47 535.172 2459.05 530.177 2464.62 525.182 2468.69 518.649 2471.27 510.578 2473.84 502.508 2474.32 494.831 2472.72 487.548 2471.11 480.265 2467.73 473.995 2462.58 468.737 2457.43 463.479 2451 459.624 2443.31 457.171 2439.46 455.945 2435.66 455.189 2431.93 454.904ZM1929.15 436.887 1913.58 442.199 1917.8 454.581 1911.61 456.693 1916.02 469.622 1922.22 467.51 1929.12 487.722C1931.25 493.974 1934.37 497.942 1938.47 499.627 1942.57 501.312 1947.44 501.192 1953.09 499.266L1961.02 496.563 1956.51 483.362 1950.95 485.256C1949.25 485.836 1947.93 485.917 1946.97 485.497 1946.01 485.078 1945.27 484.11 1944.76 482.593L1937.8 462.198 1948 458.719 1943.58 445.79 1933.38 449.269ZM2325.06 430.633 2309.84 511.654 2334.68 516.316 2341.75 478.71C2343 472.031 2345.43 467.651 2349.03 465.571 2352.63 463.491 2357.53 463.033 2363.73 464.196L2370.56 465.477 2375.49 439.197C2370.17 438.197 2365.08 438.571 2360.24 440.318 2355.4 442.065 2351.11 444.892 2347.37 448.799L2349.91 435.296ZM2204.19 420.317 2199.25 502.605 2224.48 504.121 2227.16 459.437C2227.5 453.932 2229.18 449.741 2232.22 446.864 2235.25 443.988 2239.18 442.695 2244 442.984 2248.82 443.273 2252.56 445.028 2255.23 448.247 2257.9 451.466 2259.07 455.828 2258.74 461.334L2256.05 506.017 2281.14 507.524 2284.03 459.449C2284.68 448.536 2282.32 439.785 2276.94 433.196 2271.56 426.608 2264.06 423.024 2254.42 422.445 2249 422.12 2244.07 422.885 2239.62 424.739 2235.16 426.592 2231.55 429.261 2228.77 432.745L2229.43 421.832ZM1978.88 417.087 1962.91 421.094 1980.26 490.138 1996.23 486.131 1989.12 457.86C1988.25 454.377 1988.47 451.445 1989.79 449.064 1991.11 446.682 1993.3 445.109 1996.35 444.344 1999.4 443.578 2002.06 443.933 2004.35 445.408 2006.64 446.884 2008.23 449.363 2009.1 452.846L2016.2 481.117 2032.07 477.134 2024.43 446.717C2022.7 439.812 2019.53 434.838 2014.93 431.795 2010.32 428.751 2005.04 427.979 1999.06 429.478 1995.58 430.353 1992.61 431.826 1990.15 433.898 1987.69 435.969 1985.94 438.358 1984.9 441.066ZM2164.3 400.57 2100.92 405.335 2108.71 508.754 2172.09 503.988 2170.57 483.806 2132.39 486.676 2130.68 463.989 2164.44 461.451 2162.98 442.004 2129.22 444.542 2127.65 423.623 2165.82 420.752ZM2200 331C2700.92 331 3107 736.854 3107 1237.5 3107 1738.15 2700.92 2144 2200 2144 1699.08 2144 1293 1738.15 1293 1237.5 1293 736.854 1699.08 331 2200 331Z" fill="#FFFFFF" fill-rule="evenodd" fill-opacity="1"/></g></g></svg>